<svg xmlns="http://www.w3.org/2000/svg" viewBox="0 0 480 360" width="480" height="360">
<defs>
  <filter id="sh" x="-20%" y="-20%" width="140%" height="150%"><feDropShadow dx="0" dy="10" stdDeviation="12" flood-color="#3a2410" flood-opacity=".28"/></filter>
  <filter id="sm" x="-30%" y="-30%" width="160%" height="160%"><feDropShadow dx="0" dy="2" stdDeviation="2" flood-color="#3a2410" flood-opacity=".25"/></filter>
  <radialGradient id="plate" cx="50%" cy="45%" r="55%"><stop offset="0" stop-color="#ffffff"/><stop offset=".8" stop-color="#f6f2ec"/><stop offset="1" stop-color="#e9e2d8"/></radialGradient>
  <radialGradient id="vig" cx="50%" cy="45%" r="75%"><stop offset=".55" stop-color="#000" stop-opacity="0"/><stop offset="1" stop-color="#2a1608" stop-opacity=".28"/></radialGradient>
  <radialGradient id="chick" cx="40%" cy="35%" r="70%"><stop offset="0" stop-color="#e8b878"/><stop offset=".7" stop-color="#c98a4a"/><stop offset="1" stop-color="#a5662f"/></radialGradient>
  <radialGradient id="beef" cx="40%" cy="35%" r="70%"><stop offset="0" stop-color="#9a5a3c"/><stop offset="1" stop-color="#5e2f1d"/></radialGradient>
  <radialGradient id="pot" cx="35%" cy="30%" r="75%"><stop offset="0" stop-color="#f6d27a"/><stop offset=".75" stop-color="#e2a748"/><stop offset="1" stop-color="#c4822c"/></radialGradient>
  <radialGradient id="yolk" cx="40%" cy="35%" r="65%"><stop offset="0" stop-color="#ffd25a"/><stop offset="1" stop-color="#f29a1c"/></radialGradient>
  <radialGradient id="glass" cx="50%" cy="50%" r="50%"><stop offset=".86" stop-color="#ffffff" stop-opacity="0"/><stop offset=".93" stop-color="#ffffff" stop-opacity=".75"/><stop offset="1" stop-color="#cfd8dc" stop-opacity=".9"/></radialGradient>
</defs><rect width="480" height="360" fill="#e6c3c8"/>
  <g opacity=".18"><rect x="0" y="0" width="480" height="10" fill="#d8adb3"/><rect x="0" y="32" width="480" height="10" fill="#d8adb3"/><rect x="0" y="64" width="480" height="10" fill="#d8adb3"/><rect x="0" y="96" width="480" height="10" fill="#d8adb3"/><rect x="0" y="128" width="480" height="10" fill="#d8adb3"/><rect x="0" y="160" width="480" height="10" fill="#d8adb3"/><rect x="0" y="192" width="480" height="10" fill="#d8adb3"/><rect x="0" y="224" width="480" height="10" fill="#d8adb3"/><rect x="0" y="256" width="480" height="10" fill="#d8adb3"/><rect x="0" y="288" width="480" height="10" fill="#d8adb3"/><rect x="0" y="320" width="480" height="10" fill="#d8adb3"/><rect x="0" y="352" width="480" height="10" fill="#d8adb3"/></g><g transform="rotate(-14 70 300)" filter="url(#sm)"><rect x="-10" y="250" width="150" height="120" rx="6" fill="#9fb7a4"/><rect x="-10" y="262" width="150" height="4" fill="#fff" opacity=".5"/><rect x="-10" y="350" width="150" height="4" fill="#fff" opacity=".5"/></g><g transform="rotate(10 420 190)" filter="url(#sm)"><rect x="414" y="140" width="10" height="160" rx="5" fill="#d9d4cc"/><ellipse cx="419" cy="100" rx="22" ry="34" fill="#e6e1d9"/><ellipse cx="419" cy="100" rx="15" ry="26" fill="#d6d0c6"/></g><circle cx="240" cy="186" r="138" fill="#ffffff" filter="url(#sh)"/><circle cx="240" cy="186" r="118.67999999999999" fill="#fbf6ef"/><circle cx="240" cy="186" r="118.67999999999999" fill="none" stroke="#000" stroke-opacity=".08" stroke-width="6"/><circle cx="240" cy="186" r="112" fill="#fff7ea"/><path d="M172.8 174.8 q33.6 -44.800000000000004 67.2 0 t67.2 0" fill="none" stroke="#efe2cc" stroke-width="6" stroke-linecap="round" opacity=".55"/><path d="M195.2 225.2 q28 -33.6 56 0 t56 0" fill="none" stroke="#efe2cc" stroke-width="5" stroke-linecap="round" opacity=".45"/><circle cx="201" cy="219" r="5.9" fill="#c99a5e"/><circle cx="247.2" cy="259.1" r="6.1" fill="#c99a5e"/><circle cx="257.5" cy="241" r="6.5" fill="#c99a5e"/><circle cx="206.3" cy="201.4" r="4.9" fill="#dcb57a"/><circle cx="301" cy="208.6" r="6.5" fill="#c99a5e"/><circle cx="248.8" cy="228.7" r="5.1" fill="#dcb57a"/><circle cx="250.5" cy="243.2" r="6.5" fill="#c99a5e"/><circle cx="214.4" cy="214.8" r="6.4" fill="#c99a5e"/><circle cx="221.8" cy="246.4" r="6.4" fill="#c99a5e"/><circle cx="267.9" cy="257.2" r="4.6" fill="#dcb57a"/><circle cx="269.9" cy="251.4" r="6.1" fill="#c99a5e"/><circle cx="181.7" cy="239.3" r="4.6" fill="#dcb57a"/><circle cx="269.9" cy="216.9" r="6.4" fill="#c99a5e"/><circle cx="275.7" cy="247.1" r="4.4" fill="#dcb57a"/><circle cx="204" cy="239.5" r="5.2" fill="#dcb57a"/><circle cx="249.6" cy="263.7" r="7" fill="#c99a5e"/><circle cx="198.2" cy="207.1" r="6.9" fill="#c99a5e"/><circle cx="234.3" cy="207.8" r="5.5" fill="#c99a5e"/><circle cx="257.5" cy="212.5" r="6.2" fill="#c99a5e"/><circle cx="177.9" cy="215.8" r="4.1" fill="#dcb57a"/><circle cx="174" cy="231.9" r="6.9" fill="#c99a5e"/><circle cx="301.5" cy="230" r="5" fill="#dcb57a"/><circle cx="274.6" cy="239.8" r="5.6" fill="#c99a5e"/><circle cx="258.1" cy="255" r="5.3" fill="#dcb57a"/><circle cx="211.5" cy="208.3" r="4.8" fill="#dcb57a"/><circle cx="204.3" cy="228" r="5.1" fill="#dcb57a"/><circle cx="226.9" cy="199.3" r="4.6" fill="#dcb57a"/><circle cx="209.2" cy="218.8" r="7" fill="#c99a5e"/><circle cx="207.7" cy="253.5" r="7" fill="#c99a5e"/><circle cx="265.5" cy="249.7" r="6" fill="#c99a5e"/><circle cx="267.9" cy="247.9" r="6" fill="#c99a5e"/><circle cx="222.7" cy="196.3" r="5.9" fill="#c99a5e"/><circle cx="258.7" cy="210.3" r="5.2" fill="#dcb57a"/><circle cx="292.2" cy="244.8" r="6.5" fill="#c99a5e"/><circle cx="192.6" cy="244.8" r="4.3" fill="#dcb57a"/><circle cx="178.9" cy="219.8" r="5.6" fill="#c99a5e"/><circle cx="205.7" cy="259.7" r="6.3" fill="#c99a5e"/><circle cx="174.6" cy="231.6" r="4.7" fill="#dcb57a"/><circle cx="224.4" cy="236.5" r="6.2" fill="#c99a5e"/><circle cx="238.5" cy="216.3" r="6.2" fill="#c99a5e"/><g filter="url(#sm)"><circle cx="304.7" cy="148.2" r="10.8" fill="#c9374a"/><circle cx="302.7" cy="146.2" r="2" fill="#fff" opacity=".45"/></g><g filter="url(#sm)"><circle cx="203.6" cy="181.1" r="10.4" fill="#a52a3c"/><circle cx="201.6" cy="179.1" r="2" fill="#fff" opacity=".45"/></g><g filter="url(#sm)"><circle cx="225.5" cy="156.6" r="9.9" fill="#3d3a7a"/><circle cx="223.5" cy="154.6" r="2" fill="#fff" opacity=".45"/></g><g filter="url(#sm)"><circle cx="240.4" cy="161.8" r="10.3" fill="#c9374a"/><circle cx="238.4" cy="159.8" r="2" fill="#fff" opacity=".45"/></g><g filter="url(#sm)"><circle cx="282.5" cy="136.9" r="10.1" fill="#a52a3c"/><circle cx="280.5" cy="134.9" r="2" fill="#fff" opacity=".45"/></g><g filter="url(#sm)"><circle cx="234.5" cy="137" r="9" fill="#3d3a7a"/><circle cx="232.5" cy="135" r="2" fill="#fff" opacity=".45"/></g><g filter="url(#sm)"><circle cx="235" cy="159.3" r="10.8" fill="#c9374a"/><circle cx="233" cy="157.3" r="2" fill="#fff" opacity=".45"/></g><g filter="url(#sm)"><circle cx="203.4" cy="185.2" r="10.2" fill="#a52a3c"/><circle cx="201.4" cy="183.2" r="2" fill="#fff" opacity=".45"/></g><g filter="url(#sm)"><circle cx="206" cy="136.8" r="8.3" fill="#3d3a7a"/><circle cx="204" cy="134.8" r="2" fill="#fff" opacity=".45"/></g><g filter="url(#sm)"><circle cx="212.8" cy="189.8" r="9.4" fill="#c9374a"/><circle cx="210.8" cy="187.8" r="2" fill="#fff" opacity=".45"/></g><g filter="url(#sm)"><circle cx="263.1" cy="163.3" r="10.5" fill="#a52a3c"/><circle cx="261.1" cy="161.3" r="2" fill="#fff" opacity=".45"/></g><g filter="url(#sm)"><circle cx="275.6" cy="143" r="8.8" fill="#3d3a7a"/><circle cx="273.6" cy="141" r="2" fill="#fff" opacity=".45"/></g><g filter="url(#sm)"><circle cx="235.6" cy="168.1" r="8.3" fill="#c9374a"/><circle cx="233.6" cy="166.1" r="2" fill="#fff" opacity=".45"/></g><g filter="url(#sm)"><circle cx="211.2" cy="127.1" r="9.5" fill="#a52a3c"/><circle cx="209.2" cy="125.1" r="2" fill="#fff" opacity=".45"/></g><g filter="url(#sm)"><circle cx="190.3" cy="130.8" r="8.5" fill="#3d3a7a"/><circle cx="188.3" cy="128.8" r="2" fill="#fff" opacity=".45"/></g><g filter="url(#sm)"><circle cx="266.6" cy="182.6" r="10.3" fill="#c9374a"/><circle cx="264.6" cy="180.6" r="2" fill="#fff" opacity=".45"/></g><g transform="rotate(129 193.4 158.3)" filter="url(#sm)"><path d="M193.4 144.3 c14 0 16 12 0 26 c-16 -14 -14 -26 0 -26z" fill="#e0384a"/><ellipse cx="189.4" cy="154.3" rx="1.3" ry="1.8" fill="#f9d77a"/><ellipse cx="197.4" cy="154.3" rx="1.3" ry="1.8" fill="#f9d77a"/><ellipse cx="193.4" cy="161.3" rx="1.3" ry="1.8" fill="#f9d77a"/><ellipse cx="188.4" cy="162.3" rx="1.3" ry="1.8" fill="#f9d77a"/><ellipse cx="198.4" cy="162.3" rx="1.3" ry="1.8" fill="#f9d77a"/><path d="M186.4 144.3 l7 5 l7 -5" stroke="#4f8a3a" stroke-width="3" fill="none" stroke-linecap="round"/></g><g transform="rotate(207.6 286.7 164.7)" filter="url(#sm)"><path d="M286.7 150.7 c14 0 16 12 0 26 c-16 -14 -14 -26 0 -26z" fill="#e0384a"/><ellipse cx="282.7" cy="160.7" rx="1.3" ry="1.8" fill="#f9d77a"/><ellipse cx="290.7" cy="160.7" rx="1.3" ry="1.8" fill="#f9d77a"/><ellipse cx="286.7" cy="167.7" rx="1.3" ry="1.8" fill="#f9d77a"/><ellipse cx="281.7" cy="168.7" rx="1.3" ry="1.8" fill="#f9d77a"/><ellipse cx="291.7" cy="168.7" rx="1.3" ry="1.8" fill="#f9d77a"/><path d="M279.7 150.7 l7 5 l7 -5" stroke="#4f8a3a" stroke-width="3" fill="none" stroke-linecap="round"/></g><g transform="rotate(16 211.7 143.5)" filter="url(#sm)"><path d="M211.7 129.5 c14 0 16 12 0 26 c-16 -14 -14 -26 0 -26z" fill="#e0384a"/><ellipse cx="207.7" cy="139.5" rx="1.3" ry="1.8" fill="#f9d77a"/><ellipse cx="215.7" cy="139.5" rx="1.3" ry="1.8" fill="#f9d77a"/><ellipse cx="211.7" cy="146.5" rx="1.3" ry="1.8" fill="#f9d77a"/><ellipse cx="206.7" cy="147.5" rx="1.3" ry="1.8" fill="#f9d77a"/><ellipse cx="216.7" cy="147.5" rx="1.3" ry="1.8" fill="#f9d77a"/><path d="M204.7 129.5 l7 5 l7 -5" stroke="#4f8a3a" stroke-width="3" fill="none" stroke-linecap="round"/></g><rect width="480" height="360" fill="url(#vig)"/></svg>