<svg xmlns="http://www.w3.org/2000/svg" viewBox="0 0 480 360" width="480" height="360">
<defs>
  <filter id="sh" x="-20%" y="-20%" width="140%" height="150%"><feDropShadow dx="0" dy="10" stdDeviation="12" flood-color="#3a2410" flood-opacity=".28"/></filter>
  <filter id="sm" x="-30%" y="-30%" width="160%" height="160%"><feDropShadow dx="0" dy="2" stdDeviation="2" flood-color="#3a2410" flood-opacity=".25"/></filter>
  <radialGradient id="plate" cx="50%" cy="45%" r="55%"><stop offset="0" stop-color="#ffffff"/><stop offset=".8" stop-color="#f6f2ec"/><stop offset="1" stop-color="#e9e2d8"/></radialGradient>
  <radialGradient id="vig" cx="50%" cy="45%" r="75%"><stop offset=".55" stop-color="#000" stop-opacity="0"/><stop offset="1" stop-color="#2a1608" stop-opacity=".28"/></radialGradient>
  <radialGradient id="chick" cx="40%" cy="35%" r="70%"><stop offset="0" stop-color="#e8b878"/><stop offset=".7" stop-color="#c98a4a"/><stop offset="1" stop-color="#a5662f"/></radialGradient>
  <radialGradient id="beef" cx="40%" cy="35%" r="70%"><stop offset="0" stop-color="#9a5a3c"/><stop offset="1" stop-color="#5e2f1d"/></radialGradient>
  <radialGradient id="pot" cx="35%" cy="30%" r="75%"><stop offset="0" stop-color="#f6d27a"/><stop offset=".75" stop-color="#e2a748"/><stop offset="1" stop-color="#c4822c"/></radialGradient>
  <radialGradient id="yolk" cx="40%" cy="35%" r="65%"><stop offset="0" stop-color="#ffd25a"/><stop offset="1" stop-color="#f29a1c"/></radialGradient>
  <radialGradient id="glass" cx="50%" cy="50%" r="50%"><stop offset=".86" stop-color="#ffffff" stop-opacity="0"/><stop offset=".93" stop-color="#ffffff" stop-opacity=".75"/><stop offset="1" stop-color="#cfd8dc" stop-opacity=".9"/></radialGradient>
</defs><rect width="480" height="360" fill="#d7b98f"/>
  <g opacity=".18"><rect x="0" y="0" width="480" height="10" fill="#c2a277"/><rect x="0" y="32" width="480" height="10" fill="#c2a277"/><rect x="0" y="64" width="480" height="10" fill="#c2a277"/><rect x="0" y="96" width="480" height="10" fill="#c2a277"/><rect x="0" y="128" width="480" height="10" fill="#c2a277"/><rect x="0" y="160" width="480" height="10" fill="#c2a277"/><rect x="0" y="192" width="480" height="10" fill="#c2a277"/><rect x="0" y="224" width="480" height="10" fill="#c2a277"/><rect x="0" y="256" width="480" height="10" fill="#c2a277"/><rect x="0" y="288" width="480" height="10" fill="#c2a277"/><rect x="0" y="320" width="480" height="10" fill="#c2a277"/><rect x="0" y="352" width="480" height="10" fill="#c2a277"/></g><g transform="rotate(-14 70 300)" filter="url(#sm)"><rect x="-10" y="250" width="150" height="120" rx="6" fill="#9fb7a4"/><rect x="-10" y="262" width="150" height="4" fill="#fff" opacity=".5"/><rect x="-10" y="350" width="150" height="4" fill="#fff" opacity=".5"/></g><g transform="rotate(10 420 190)" filter="url(#sm)"><rect x="414" y="140" width="10" height="160" rx="5" fill="#d9d4cc"/><ellipse cx="419" cy="100" rx="22" ry="34" fill="#e6e1d9"/><ellipse cx="419" cy="100" rx="15" ry="26" fill="#d6d0c6"/></g><circle cx="240" cy="186" r="138" fill="#e4ded4" filter="url(#sh)"/><circle cx="240" cy="186" r="118.67999999999999" fill="#fbf8f3"/><circle cx="240" cy="186" r="118.67999999999999" fill="none" stroke="#000" stroke-opacity=".08" stroke-width="6"/><circle cx="240" cy="186" r="104" fill="#f4eee0"/><ellipse cx="277.1" cy="195.5" rx="5" ry="2.4" transform="rotate(177.6 277.1 195.5)" fill="#efe6d2"/><ellipse cx="173.3" cy="240.5" rx="5" ry="2.4" transform="rotate(119.5 173.3 240.5)" fill="#f2dfa8"/><ellipse cx="264.6" cy="133" rx="5" ry="2.4" transform="rotate(14.2 264.6 133)" fill="#f2dfa8"/><ellipse cx="229.8" cy="101.7" rx="5" ry="2.4" transform="rotate(113.4 229.8 101.7)" fill="#f2dfa8"/><ellipse cx="180.9" cy="139.5" rx="5" ry="2.4" transform="rotate(147.3 180.9 139.5)" fill="#efe6d2"/><ellipse cx="285.5" cy="106.4" rx="5" ry="2.4" transform="rotate(136.7 285.5 106.4)" fill="#efe6d2"/><ellipse cx="143.3" cy="209.8" rx="5" ry="2.4" transform="rotate(78.4 143.3 209.8)" fill="#f2dfa8"/><ellipse cx="242.5" cy="135.1" rx="5" ry="2.4" transform="rotate(3 242.5 135.1)" fill="#f2dfa8"/><ellipse cx="318.1" cy="199.6" rx="5" ry="2.4" transform="rotate(87.3 318.1 199.6)" fill="#f2dfa8"/><ellipse cx="149.9" cy="226" rx="5" ry="2.4" transform="rotate(139.9 149.9 226)" fill="#efe6d2"/><ellipse cx="276.5" cy="262.5" rx="5" ry="2.4" transform="rotate(72.1 276.5 262.5)" fill="#f2dfa8"/><ellipse cx="166.7" cy="190.1" rx="5" ry="2.4" transform="rotate(137.9 166.7 190.1)" fill="#efe6d2"/><ellipse cx="208.9" cy="245" rx="5" ry="2.4" transform="rotate(72.4 208.9 245)" fill="#f2dfa8"/><ellipse cx="248.5" cy="271.1" rx="5" ry="2.4" transform="rotate(103.9 248.5 271.1)" fill="#f2dfa8"/><ellipse cx="320.2" cy="148" rx="5" ry="2.4" transform="rotate(151 320.2 148)" fill="#efe6d2"/><ellipse cx="326" cy="164.3" rx="5" ry="2.4" transform="rotate(91.9 326 164.3)" fill="#f2dfa8"/><ellipse cx="310.8" cy="211.5" rx="5" ry="2.4" transform="rotate(76.7 310.8 211.5)" fill="#f2dfa8"/><ellipse cx="288.2" cy="184.1" rx="5" ry="2.4" transform="rotate(11.4 288.2 184.1)" fill="#f2dfa8"/><ellipse cx="221.5" cy="277.8" rx="5" ry="2.4" transform="rotate(45.4 221.5 277.8)" fill="#f2dfa8"/><ellipse cx="336.5" cy="205" rx="5" ry="2.4" transform="rotate(151.6 336.5 205)" fill="#efe6d2"/><ellipse cx="279.7" cy="216.3" rx="5" ry="2.4" transform="rotate(142.7 279.7 216.3)" fill="#efe6d2"/><ellipse cx="185.4" cy="265.2" rx="5" ry="2.4" transform="rotate(167.9 185.4 265.2)" fill="#efe6d2"/><ellipse cx="267.9" cy="257.2" rx="5" ry="2.4" transform="rotate(127.1 267.9 257.2)" fill="#efe6d2"/><ellipse cx="326.7" cy="220.1" rx="5" ry="2.4" transform="rotate(85.8 326.7 220.1)" fill="#f2dfa8"/><ellipse cx="204.3" cy="160.4" rx="5" ry="2.4" transform="rotate(138.7 204.3 160.4)" fill="#efe6d2"/><ellipse cx="227.3" cy="165.8" rx="5" ry="2.4" transform="rotate(75.7 227.3 165.8)" fill="#f2dfa8"/><ellipse cx="273.9" cy="268.4" rx="5" ry="2.4" transform="rotate(41.6 273.9 268.4)" fill="#f2dfa8"/><ellipse cx="209.6" cy="254.9" rx="5" ry="2.4" transform="rotate(116.5 209.6 254.9)" fill="#f2dfa8"/><ellipse cx="225.8" cy="204.8" rx="5" ry="2.4" transform="rotate(157.8 225.8 204.8)" fill="#efe6d2"/><ellipse cx="243.2" cy="168.2" rx="5" ry="2.4" transform="rotate(14.5 243.2 168.2)" fill="#f2dfa8"/><ellipse cx="165" cy="138.9" rx="5" ry="2.4" transform="rotate(125.6 165 138.9)" fill="#f2dfa8"/><ellipse cx="315.3" cy="163.7" rx="5" ry="2.4" transform="rotate(74.5 315.3 163.7)" fill="#f2dfa8"/><ellipse cx="197.3" cy="153.2" rx="5" ry="2.4" transform="rotate(138.8 197.3 153.2)" fill="#efe6d2"/><ellipse cx="276.3" cy="196.9" rx="5" ry="2.4" transform="rotate(163.1 276.3 196.9)" fill="#efe6d2"/><ellipse cx="192.7" cy="158.4" rx="5" ry="2.4" transform="rotate(68.8 192.7 158.4)" fill="#f2dfa8"/><ellipse cx="176.2" cy="146.9" rx="5" ry="2.4" transform="rotate(142.9 176.2 146.9)" fill="#efe6d2"/><ellipse cx="269.9" cy="194.8" rx="5" ry="2.4" transform="rotate(34.2 269.9 194.8)" fill="#f2dfa8"/><ellipse cx="211.7" cy="242.5" rx="5" ry="2.4" transform="rotate(60.1 211.7 242.5)" fill="#f2dfa8"/><ellipse cx="201.6" cy="276.7" rx="5" ry="2.4" transform="rotate(130.7 201.6 276.7)" fill="#efe6d2"/><ellipse cx="248.1" cy="106.5" rx="5" ry="2.4" transform="rotate(161.7 248.1 106.5)" fill="#efe6d2"/><ellipse cx="194.3" cy="244" rx="5" ry="2.4" transform="rotate(93.4 194.3 244)" fill="#f2dfa8"/><ellipse cx="287.4" cy="138.2" rx="5" ry="2.4" transform="rotate(166.7 287.4 138.2)" fill="#efe6d2"/><ellipse cx="214.6" cy="269.3" rx="5" ry="2.4" transform="rotate(1.3 214.6 269.3)" fill="#f2dfa8"/><ellipse cx="311.8" cy="131.7" rx="5" ry="2.4" transform="rotate(88.1 311.8 131.7)" fill="#f2dfa8"/><ellipse cx="236.5" cy="147.6" rx="5" ry="2.4" transform="rotate(157.3 236.5 147.6)" fill="#efe6d2"/><ellipse cx="196.9" cy="267.8" rx="5" ry="2.4" transform="rotate(141.6 196.9 267.8)" fill="#efe6d2"/><ellipse cx="264.7" cy="130" rx="5" ry="2.4" transform="rotate(165.5 264.7 130)" fill="#efe6d2"/><ellipse cx="185.7" cy="221" rx="5" ry="2.4" transform="rotate(114.1 185.7 221)" fill="#f2dfa8"/><ellipse cx="273.8" cy="244.9" rx="5" ry="2.4" transform="rotate(143.8 273.8 244.9)" fill="#efe6d2"/><ellipse cx="264" cy="209" rx="5" ry="2.4" transform="rotate(178.6 264 209)" fill="#efe6d2"/><ellipse cx="306" cy="246.7" rx="5" ry="2.4" transform="rotate(51.7 306 246.7)" fill="#f2dfa8"/><ellipse cx="249.3" cy="220.3" rx="5" ry="2.4" transform="rotate(66.8 249.3 220.3)" fill="#f2dfa8"/><ellipse cx="184.9" cy="226.4" rx="5" ry="2.4" transform="rotate(168 184.9 226.4)" fill="#efe6d2"/><ellipse cx="281.2" cy="219.3" rx="5" ry="2.4" transform="rotate(108.6 281.2 219.3)" fill="#f2dfa8"/><ellipse cx="179.7" cy="168.8" rx="5" ry="2.4" transform="rotate(72.6 179.7 168.8)" fill="#f2dfa8"/><ellipse cx="237.8" cy="175.4" rx="5" ry="2.4" transform="rotate(102.7 237.8 175.4)" fill="#f2dfa8"/><ellipse cx="304.1" cy="121.2" rx="5" ry="2.4" transform="rotate(47.3 304.1 121.2)" fill="#f2dfa8"/><ellipse cx="244.3" cy="220.3" rx="5" ry="2.4" transform="rotate(7.1 244.3 220.3)" fill="#f2dfa8"/><ellipse cx="275.9" cy="172.8" rx="5" ry="2.4" transform="rotate(129.8 275.9 172.8)" fill="#efe6d2"/><ellipse cx="326.8" cy="218.3" rx="5" ry="2.4" transform="rotate(72.3 326.8 218.3)" fill="#f2dfa8"/><ellipse cx="285.4" cy="216" rx="5" ry="2.4" transform="rotate(146.8 285.4 216)" fill="#efe6d2"/><ellipse cx="145.5" cy="213.7" rx="5" ry="2.4" transform="rotate(156.1 145.5 213.7)" fill="#efe6d2"/><ellipse cx="281.2" cy="182.5" rx="5" ry="2.4" transform="rotate(160.3 281.2 182.5)" fill="#efe6d2"/><ellipse cx="257.3" cy="207.7" rx="5" ry="2.4" transform="rotate(14.5 257.3 207.7)" fill="#f2dfa8"/><ellipse cx="292" cy="257" rx="5" ry="2.4" transform="rotate(163.4 292 257)" fill="#efe6d2"/><ellipse cx="171.7" cy="251.7" rx="5" ry="2.4" transform="rotate(55.4 171.7 251.7)" fill="#f2dfa8"/><ellipse cx="250" cy="251.1" rx="5" ry="2.4" transform="rotate(66.5 250 251.1)" fill="#f2dfa8"/><ellipse cx="256" cy="96.6" rx="5" ry="2.4" transform="rotate(149.1 256 96.6)" fill="#efe6d2"/><ellipse cx="155.9" cy="234.1" rx="5" ry="2.4" transform="rotate(54 155.9 234.1)" fill="#f2dfa8"/><ellipse cx="281.4" cy="266.8" rx="5" ry="2.4" transform="rotate(178.7 281.4 266.8)" fill="#efe6d2"/><ellipse cx="289.2" cy="195.3" rx="5" ry="2.4" transform="rotate(15.9 289.2 195.3)" fill="#f2dfa8"/><ellipse cx="283" cy="187.7" rx="5" ry="2.4" transform="rotate(35.7 283 187.7)" fill="#f2dfa8"/><ellipse cx="198.6" cy="145.1" rx="5" ry="2.4" transform="rotate(157.6 198.6 145.1)" fill="#efe6d2"/><ellipse cx="270.2" cy="113.8" rx="5" ry="2.4" transform="rotate(141.5 270.2 113.8)" fill="#efe6d2"/><ellipse cx="235.8" cy="143.2" rx="5" ry="2.4" transform="rotate(165.2 235.8 143.2)" fill="#efe6d2"/><ellipse cx="220.9" cy="257.1" rx="5" ry="2.4" transform="rotate(36.9 220.9 257.1)" fill="#f2dfa8"/><ellipse cx="258.3" cy="127.1" rx="5" ry="2.4" transform="rotate(125.5 258.3 127.1)" fill="#f2dfa8"/><ellipse cx="225.7" cy="128.5" rx="5" ry="2.4" transform="rotate(126 225.7 128.5)" fill="#efe6d2"/><ellipse cx="203.7" cy="147.8" rx="5" ry="2.4" transform="rotate(163.8 203.7 147.8)" fill="#efe6d2"/><ellipse cx="211.4" cy="248.1" rx="5" ry="2.4" transform="rotate(166.2 211.4 248.1)" fill="#efe6d2"/><ellipse cx="275.5" cy="113" rx="5" ry="2.4" transform="rotate(100.1 275.5 113)" fill="#f2dfa8"/><ellipse cx="240.1" cy="244.2" rx="5" ry="2.4" transform="rotate(39 240.1 244.2)" fill="#f2dfa8"/><ellipse cx="182.3" cy="119.6" rx="5" ry="2.4" transform="rotate(99 182.3 119.6)" fill="#f2dfa8"/><ellipse cx="156.1" cy="212.2" rx="5" ry="2.4" transform="rotate(85.6 156.1 212.2)" fill="#f2dfa8"/><ellipse cx="177.7" cy="153.4" rx="5" ry="2.4" transform="rotate(65.5 177.7 153.4)" fill="#f2dfa8"/><ellipse cx="269.3" cy="124.2" rx="5" ry="2.4" transform="rotate(99.3 269.3 124.2)" fill="#f2dfa8"/><ellipse cx="262" cy="100.7" rx="5" ry="2.4" transform="rotate(91.9 262 100.7)" fill="#f2dfa8"/><ellipse cx="279.4" cy="249.7" rx="5" ry="2.4" transform="rotate(105.6 279.4 249.7)" fill="#f2dfa8"/><ellipse cx="309.8" cy="141.6" rx="5" ry="2.4" transform="rotate(1.8 309.8 141.6)" fill="#f2dfa8"/><ellipse cx="232.7" cy="199.8" rx="5" ry="2.4" transform="rotate(119.4 232.7 199.8)" fill="#f2dfa8"/><ellipse cx="291.1" cy="138.5" rx="5" ry="2.4" transform="rotate(113.8 291.1 138.5)" fill="#f2dfa8"/><ellipse cx="299.7" cy="170.2" rx="5" ry="2.4" transform="rotate(21.8 299.7 170.2)" fill="#f2dfa8"/><ellipse cx="316.5" cy="141.2" rx="5" ry="2.4" transform="rotate(95.1 316.5 141.2)" fill="#f2dfa8"/><ellipse cx="226.5" cy="218.8" rx="5" ry="2.4" transform="rotate(9.4 226.5 218.8)" fill="#f2dfa8"/><ellipse cx="305" cy="111.4" rx="5" ry="2.4" transform="rotate(22.2 305 111.4)" fill="#f2dfa8"/><ellipse cx="176.3" cy="117.3" rx="5" ry="2.4" transform="rotate(50 176.3 117.3)" fill="#f2dfa8"/><ellipse cx="237.2" cy="254.2" rx="5" ry="2.4" transform="rotate(125.8 237.2 254.2)" fill="#f2dfa8"/><ellipse cx="275.1" cy="224.4" rx="5" ry="2.4" transform="rotate(116.1 275.1 224.4)" fill="#f2dfa8"/><ellipse cx="305.7" cy="140.7" rx="5" ry="2.4" transform="rotate(37.9 305.7 140.7)" fill="#f2dfa8"/><ellipse cx="276.2" cy="125.2" rx="5" ry="2.4" transform="rotate(66 276.2 125.2)" fill="#f2dfa8"/><ellipse cx="155.6" cy="178.1" rx="5" ry="2.4" transform="rotate(77.2 155.6 178.1)" fill="#f2dfa8"/><ellipse cx="291.8" cy="116.3" rx="5" ry="2.4" transform="rotate(56.4 291.8 116.3)" fill="#f2dfa8"/><ellipse cx="288.1" cy="256.4" rx="5" ry="2.4" transform="rotate(129.3 288.1 256.4)" fill="#efe6d2"/><ellipse cx="217.3" cy="221.3" rx="5" ry="2.4" transform="rotate(60 217.3 221.3)" fill="#f2dfa8"/><ellipse cx="241.7" cy="181.5" rx="5" ry="2.4" transform="rotate(96 241.7 181.5)" fill="#f2dfa8"/><ellipse cx="258.8" cy="91.8" rx="5" ry="2.4" transform="rotate(148.5 258.8 91.8)" fill="#efe6d2"/><ellipse cx="185.1" cy="120" rx="5" ry="2.4" transform="rotate(58.3 185.1 120)" fill="#f2dfa8"/><ellipse cx="227" cy="189.1" rx="5" ry="2.4" transform="rotate(82.2 227 189.1)" fill="#f2dfa8"/><ellipse cx="288.5" cy="245.3" rx="5" ry="2.4" transform="rotate(138.1 288.5 245.3)" fill="#efe6d2"/><ellipse cx="272.4" cy="123.3" rx="5" ry="2.4" transform="rotate(49 272.4 123.3)" fill="#f2dfa8"/><ellipse cx="274.7" cy="130.6" rx="5" ry="2.4" transform="rotate(83.6 274.7 130.6)" fill="#f2dfa8"/><ellipse cx="172.7" cy="188.5" rx="5" ry="2.4" transform="rotate(160.7 172.7 188.5)" fill="#efe6d2"/><ellipse cx="232.5" cy="266.7" rx="5" ry="2.4" transform="rotate(40.7 232.5 266.7)" fill="#f2dfa8"/><ellipse cx="302.2" cy="215.3" rx="5" ry="2.4" transform="rotate(48.7 302.2 215.3)" fill="#f2dfa8"/><ellipse cx="289.4" cy="114.9" rx="5" ry="2.4" transform="rotate(22.6 289.4 114.9)" fill="#f2dfa8"/><ellipse cx="266.5" cy="240.8" rx="5" ry="2.4" transform="rotate(177.3 266.5 240.8)" fill="#efe6d2"/><ellipse cx="336.7" cy="166.7" rx="5" ry="2.4" transform="rotate(84.3 336.7 166.7)" fill="#f2dfa8"/><ellipse cx="233.1" cy="239" rx="5" ry="2.4" transform="rotate(87.3 233.1 239)" fill="#f2dfa8"/><ellipse cx="248.4" cy="211.7" rx="5" ry="2.4" transform="rotate(2.4 248.4 211.7)" fill="#f2dfa8"/><ellipse cx="202.2" cy="183" rx="5" ry="2.4" transform="rotate(92.1 202.2 183)" fill="#f2dfa8"/><ellipse cx="269.6" cy="206.4" rx="5" ry="2.4" transform="rotate(174.1 269.6 206.4)" fill="#efe6d2"/><ellipse cx="263.1" cy="233.9" rx="5" ry="2.4" transform="rotate(48.5 263.1 233.9)" fill="#f2dfa8"/><ellipse cx="239.3" cy="124.6" rx="5" ry="2.4" transform="rotate(147.4 239.3 124.6)" fill="#efe6d2"/><ellipse cx="164.6" cy="214.7" rx="5" ry="2.4" transform="rotate(53 164.6 214.7)" fill="#f2dfa8"/><ellipse cx="232.5" cy="100.7" rx="5" ry="2.4" transform="rotate(136.9 232.5 100.7)" fill="#efe6d2"/><ellipse cx="293.4" cy="121.9" rx="5" ry="2.4" transform="rotate(85.2 293.4 121.9)" fill="#f2dfa8"/><ellipse cx="268.2" cy="236.2" rx="5" ry="2.4" transform="rotate(105.9 268.2 236.2)" fill="#f2dfa8"/><ellipse cx="249.9" cy="265.1" rx="5" ry="2.4" transform="rotate(151.1 249.9 265.1)" fill="#efe6d2"/><ellipse cx="189.5" cy="271.9" rx="5" ry="2.4" transform="rotate(72.1 189.5 271.9)" fill="#f2dfa8"/><ellipse cx="166.7" cy="212.1" rx="5" ry="2.4" transform="rotate(127.8 166.7 212.1)" fill="#efe6d2"/><ellipse cx="306" cy="178.4" rx="5" ry="2.4" transform="rotate(72.9 306 178.4)" fill="#f2dfa8"/><ellipse cx="224.3" cy="180" rx="5" ry="2.4" transform="rotate(168 224.3 180)" fill="#efe6d2"/><ellipse cx="221.1" cy="111.8" rx="5" ry="2.4" transform="rotate(101.1 221.1 111.8)" fill="#f2dfa8"/><ellipse cx="318.5" cy="167.5" rx="5" ry="2.4" transform="rotate(114.3 318.5 167.5)" fill="#f2dfa8"/><ellipse cx="272.3" cy="262.2" rx="5" ry="2.4" transform="rotate(160.2 272.3 262.2)" fill="#efe6d2"/><ellipse cx="222" cy="161.8" rx="5" ry="2.4" transform="rotate(65 222 161.8)" fill="#f2dfa8"/><ellipse cx="263.8" cy="271.9" rx="5" ry="2.4" transform="rotate(166.2 263.8 271.9)" fill="#efe6d2"/><ellipse cx="259.8" cy="248.8" rx="5" ry="2.4" transform="rotate(4.9 259.8 248.8)" fill="#f2dfa8"/><ellipse cx="275.7" cy="144.8" rx="5" ry="2.4" transform="rotate(43.9 275.7 144.8)" fill="#f2dfa8"/><ellipse cx="307.1" cy="169.1" rx="5" ry="2.4" transform="rotate(32.1 307.1 169.1)" fill="#f2dfa8"/><ellipse cx="192.5" cy="195.6" rx="5" ry="2.4" transform="rotate(32.5 192.5 195.6)" fill="#f2dfa8"/><ellipse cx="241.2" cy="90.9" rx="5" ry="2.4" transform="rotate(130.2 241.2 90.9)" fill="#efe6d2"/><ellipse cx="185.2" cy="244.5" rx="5" ry="2.4" transform="rotate(146.4 185.2 244.5)" fill="#efe6d2"/><ellipse cx="237.6" cy="263" rx="5" ry="2.4" transform="rotate(35.5 237.6 263)" fill="#f2dfa8"/><ellipse cx="162.9" cy="150.6" rx="5" ry="2.4" transform="rotate(52.6 162.9 150.6)" fill="#f2dfa8"/><ellipse cx="220.4" cy="153" rx="5" ry="2.4" transform="rotate(126.9 220.4 153)" fill="#efe6d2"/><ellipse cx="296.3" cy="173.3" rx="5" ry="2.4" transform="rotate(76.9 296.3 173.3)" fill="#f2dfa8"/><ellipse cx="323" cy="224" rx="5" ry="2.4" transform="rotate(111.3 323 224)" fill="#f2dfa8"/><ellipse cx="216.9" cy="188" rx="5" ry="2.4" transform="rotate(59.7 216.9 188)" fill="#f2dfa8"/><ellipse cx="194.4" cy="225.4" rx="5" ry="2.4" transform="rotate(158.2 194.4 225.4)" fill="#efe6d2"/><ellipse cx="252.8" cy="185.8" rx="5" ry="2.4" transform="rotate(175.3 252.8 185.8)" fill="#efe6d2"/><ellipse cx="304" cy="143.2" rx="5" ry="2.4" transform="rotate(175.1 304 143.2)" fill="#efe6d2"/><ellipse cx="292.7" cy="258.8" rx="5" ry="2.4" transform="rotate(97.6 292.7 258.8)" fill="#f2dfa8"/><ellipse cx="321" cy="128.5" rx="5" ry="2.4" transform="rotate(62.7 321 128.5)" fill="#f2dfa8"/><ellipse cx="312" cy="185.6" rx="5" ry="2.4" transform="rotate(173.6 312 185.6)" fill="#efe6d2"/><ellipse cx="226.9" cy="152" rx="5" ry="2.4" transform="rotate(144.2 226.9 152)" fill="#efe6d2"/><ellipse cx="182.8" cy="168.6" rx="5" ry="2.4" transform="rotate(83.1 182.8 168.6)" fill="#f2dfa8"/><ellipse cx="239.8" cy="231" rx="5" ry="2.4" transform="rotate(41.8 239.8 231)" fill="#f2dfa8"/><ellipse cx="224.5" cy="233" rx="5" ry="2.4" transform="rotate(9.9 224.5 233)" fill="#f2dfa8"/><ellipse cx="230.9" cy="267.3" rx="5" ry="2.4" transform="rotate(133.5 230.9 267.3)" fill="#efe6d2"/><ellipse cx="177" cy="126.3" rx="5" ry="2.4" transform="rotate(39.7 177 126.3)" fill="#f2dfa8"/><ellipse cx="272.6" cy="138.9" rx="5" ry="2.4" transform="rotate(56.1 272.6 138.9)" fill="#f2dfa8"/><ellipse cx="254.7" cy="188.4" rx="5" ry="2.4" transform="rotate(140.3 254.7 188.4)" fill="#efe6d2"/><ellipse cx="294.7" cy="189" rx="5" ry="2.4" transform="rotate(169.5 294.7 189)" fill="#efe6d2"/><ellipse cx="283.6" cy="173" rx="5" ry="2.4" transform="rotate(69.2 283.6 173)" fill="#f2dfa8"/><ellipse cx="236" cy="275.6" rx="5" ry="2.4" transform="rotate(11.9 236 275.6)" fill="#f2dfa8"/><ellipse cx="160.4" cy="145.2" rx="5" ry="2.4" transform="rotate(172.2 160.4 145.2)" fill="#efe6d2"/><ellipse cx="274.3" cy="115.6" rx="5" ry="2.4" transform="rotate(176.1 274.3 115.6)" fill="#efe6d2"/><ellipse cx="192.5" cy="199" rx="5" ry="2.4" transform="rotate(167.5 192.5 199)" fill="#efe6d2"/><ellipse cx="173.5" cy="243.9" rx="5" ry="2.4" transform="rotate(160.5 173.5 243.9)" fill="#efe6d2"/><ellipse cx="331.4" cy="163.5" rx="5" ry="2.4" transform="rotate(94.2 331.4 163.5)" fill="#f2dfa8"/><ellipse cx="267.2" cy="207" rx="5" ry="2.4" transform="rotate(124.9 267.2 207)" fill="#f2dfa8"/><ellipse cx="157.1" cy="152.1" rx="5" ry="2.4" transform="rotate(42.9 157.1 152.1)" fill="#f2dfa8"/><ellipse cx="257.5" cy="254.9" rx="5" ry="2.4" transform="rotate(97 257.5 254.9)" fill="#f2dfa8"/><ellipse cx="174.8" cy="139.9" rx="5" ry="2.4" transform="rotate(137.9 174.8 139.9)" fill="#efe6d2"/><ellipse cx="157" cy="220.9" rx="5" ry="2.4" transform="rotate(113.7 157 220.9)" fill="#f2dfa8"/><ellipse cx="178" cy="116.1" rx="5" ry="2.4" transform="rotate(34 178 116.1)" fill="#f2dfa8"/><ellipse cx="213" cy="184.7" rx="5" ry="2.4" transform="rotate(15.4 213 184.7)" fill="#f2dfa8"/><ellipse cx="166.4" cy="233.9" rx="5" ry="2.4" transform="rotate(35.1 166.4 233.9)" fill="#f2dfa8"/><ellipse cx="306.2" cy="216.5" rx="5" ry="2.4" transform="rotate(177.3 306.2 216.5)" fill="#efe6d2"/><ellipse cx="192.8" cy="142.4" rx="5" ry="2.4" transform="rotate(133.8 192.8 142.4)" fill="#efe6d2"/><ellipse cx="243.2" cy="225.3" rx="5" ry="2.4" transform="rotate(174.9 243.2 225.3)" fill="#efe6d2"/><ellipse cx="185.5" cy="251.6" rx="5" ry="2.4" transform="rotate(96.3 185.5 251.6)" fill="#f2dfa8"/><ellipse cx="143" cy="189.5" rx="5" ry="2.4" transform="rotate(42.8 143 189.5)" fill="#f2dfa8"/><ellipse cx="298.3" cy="239.6" rx="5" ry="2.4" transform="rotate(107.5 298.3 239.6)" fill="#f2dfa8"/><ellipse cx="150.4" cy="183.3" rx="5" ry="2.4" transform="rotate(163.5 150.4 183.3)" fill="#efe6d2"/><ellipse cx="261.4" cy="101.9" rx="5" ry="2.4" transform="rotate(104.1 261.4 101.9)" fill="#f2dfa8"/><ellipse cx="212.6" cy="144.5" rx="5" ry="2.4" transform="rotate(164 212.6 144.5)" fill="#efe6d2"/><ellipse cx="157.1" cy="231.8" rx="5" ry="2.4" transform="rotate(141 157.1 231.8)" fill="#efe6d2"/><ellipse cx="229.3" cy="255.6" rx="5" ry="2.4" transform="rotate(125.7 229.3 255.6)" fill="#f2dfa8"/><ellipse cx="299.8" cy="237.9" rx="5" ry="2.4" transform="rotate(157.1 299.8 237.9)" fill="#efe6d2"/><ellipse cx="233.6" cy="182.1" rx="5" ry="2.4" transform="rotate(17.8 233.6 182.1)" fill="#f2dfa8"/><ellipse cx="280.4" cy="272.2" rx="5" ry="2.4" transform="rotate(58 280.4 272.2)" fill="#f2dfa8"/><ellipse cx="238.4" cy="282.8" rx="5" ry="2.4" transform="rotate(49 238.4 282.8)" fill="#f2dfa8"/><ellipse cx="255" cy="144.5" rx="5" ry="2.4" transform="rotate(88.1 255 144.5)" fill="#f2dfa8"/><ellipse cx="159.2" cy="177" rx="5" ry="2.4" transform="rotate(125.6 159.2 177)" fill="#f2dfa8"/><ellipse cx="252.7" cy="99.8" rx="5" ry="2.4" transform="rotate(52 252.7 99.8)" fill="#f2dfa8"/><ellipse cx="198.3" cy="145.5" rx="5" ry="2.4" transform="rotate(86.1 198.3 145.5)" fill="#f2dfa8"/><ellipse cx="234.5" cy="149" rx="5" ry="2.4" transform="rotate(62.7 234.5 149)" fill="#f2dfa8"/><ellipse cx="251.1" cy="107.3" rx="5" ry="2.4" transform="rotate(94.3 251.1 107.3)" fill="#f2dfa8"/><ellipse cx="203.7" cy="181.9" rx="5" ry="2.4" transform="rotate(160.7 203.7 181.9)" fill="#efe6d2"/><ellipse cx="201.1" cy="176.3" rx="5" ry="2.4" transform="rotate(78 201.1 176.3)" fill="#f2dfa8"/><ellipse cx="269.7" cy="262.1" rx="5" ry="2.4" transform="rotate(150.8 269.7 262.1)" fill="#efe6d2"/><ellipse cx="268.3" cy="181.9" rx="5" ry="2.4" transform="rotate(129.5 268.3 181.9)" fill="#efe6d2"/><ellipse cx="222.3" cy="272.8" rx="5" ry="2.4" transform="rotate(79.9 222.3 272.8)" fill="#f2dfa8"/><ellipse cx="170.6" cy="157" rx="5" ry="2.4" transform="rotate(84.7 170.6 157)" fill="#f2dfa8"/><ellipse cx="233.1" cy="195.1" rx="5" ry="2.4" transform="rotate(128 233.1 195.1)" fill="#efe6d2"/><ellipse cx="174.3" cy="240.4" rx="5" ry="2.4" transform="rotate(23.8 174.3 240.4)" fill="#f2dfa8"/><ellipse cx="274" cy="275.4" rx="5" ry="2.4" transform="rotate(55 274 275.4)" fill="#f2dfa8"/><ellipse cx="220.5" cy="190.9" rx="5" ry="2.4" transform="rotate(178.7 220.5 190.9)" fill="#efe6d2"/><ellipse cx="268.8" cy="93" rx="5" ry="2.4" transform="rotate(89.8 268.8 93)" fill="#f2dfa8"/><ellipse cx="198.5" cy="219.7" rx="5" ry="2.4" transform="rotate(105.4 198.5 219.7)" fill="#f2dfa8"/><ellipse cx="195.6" cy="205.8" rx="5" ry="2.4" transform="rotate(35.2 195.6 205.8)" fill="#f2dfa8"/><ellipse cx="335.4" cy="205.2" rx="5" ry="2.4" transform="rotate(138.4 335.4 205.2)" fill="#efe6d2"/><ellipse cx="165.8" cy="226.8" rx="5" ry="2.4" transform="rotate(164.9 165.8 226.8)" fill="#efe6d2"/><ellipse cx="178.3" cy="208.6" rx="5" ry="2.4" transform="rotate(38.7 178.3 208.6)" fill="#f2dfa8"/><ellipse cx="178.6" cy="248" rx="5" ry="2.4" transform="rotate(80.3 178.6 248)" fill="#f2dfa8"/><ellipse cx="315.1" cy="121.4" rx="5" ry="2.4" transform="rotate(84.7 315.1 121.4)" fill="#f2dfa8"/><ellipse cx="265" cy="182.7" rx="5" ry="2.4" transform="rotate(0 265 182.7)" fill="#f2dfa8"/><ellipse cx="297" cy="206.6" rx="5" ry="2.4" transform="rotate(51.3 297 206.6)" fill="#f2dfa8"/><ellipse cx="162.2" cy="184.4" rx="5" ry="2.4" transform="rotate(14.6 162.2 184.4)" fill="#f2dfa8"/><ellipse cx="183.5" cy="252" rx="5" ry="2.4" transform="rotate(91 183.5 252)" fill="#f2dfa8"/><ellipse cx="285" cy="159.1" rx="5" ry="2.4" transform="rotate(174.2 285 159.1)" fill="#efe6d2"/><ellipse cx="181.9" cy="168.3" rx="5" ry="2.4" transform="rotate(30.2 181.9 168.3)" fill="#f2dfa8"/><ellipse cx="291.4" cy="151.8" rx="5" ry="2.4" transform="rotate(147.7 291.4 151.8)" fill="#efe6d2"/><ellipse cx="250.3" cy="184.3" rx="5" ry="2.4" transform="rotate(77.8 250.3 184.3)" fill="#f2dfa8"/><ellipse cx="223.1" cy="248" rx="5" ry="2.4" transform="rotate(3.2 223.1 248)" fill="#f2dfa8"/><ellipse cx="199.3" cy="99.7" rx="5" ry="2.4" transform="rotate(71.4 199.3 99.7)" fill="#f2dfa8"/><ellipse cx="224.7" cy="281.5" rx="5" ry="2.4" transform="rotate(66.3 224.7 281.5)" fill="#f2dfa8"/><ellipse cx="277.6" cy="209.8" rx="5" ry="2.4" transform="rotate(91.8 277.6 209.8)" fill="#f2dfa8"/><ellipse cx="280.2" cy="185.2" rx="5" ry="2.4" transform="rotate(103.3 280.2 185.2)" fill="#f2dfa8"/><ellipse cx="197.2" cy="208.2" rx="5" ry="2.4" transform="rotate(175.8 197.2 208.2)" fill="#efe6d2"/><ellipse cx="207.5" cy="121.2" rx="5" ry="2.4" transform="rotate(108.2 207.5 121.2)" fill="#f2dfa8"/><ellipse cx="241.4" cy="125.2" rx="5" ry="2.4" transform="rotate(32.9 241.4 125.2)" fill="#f2dfa8"/><ellipse cx="143.1" cy="178.5" rx="5" ry="2.4" transform="rotate(124.2 143.1 178.5)" fill="#f2dfa8"/><ellipse cx="178.3" cy="215.9" rx="5" ry="2.4" transform="rotate(64.9 178.3 215.9)" fill="#f2dfa8"/><ellipse cx="164.1" cy="151.8" rx="5" ry="2.4" transform="rotate(90.9 164.1 151.8)" fill="#f2dfa8"/><ellipse cx="271.2" cy="109.7" rx="5" ry="2.4" transform="rotate(96.2 271.2 109.7)" fill="#f2dfa8"/><ellipse cx="284.7" cy="161.4" rx="5" ry="2.4" transform="rotate(110.5 284.7 161.4)" fill="#f2dfa8"/><ellipse cx="321.6" cy="176.4" rx="5" ry="2.4" transform="rotate(139.5 321.6 176.4)" fill="#efe6d2"/><ellipse cx="259.2" cy="125.6" rx="5" ry="2.4" transform="rotate(177 259.2 125.6)" fill="#efe6d2"/><ellipse cx="258.2" cy="92" rx="5" ry="2.4" transform="rotate(4.5 258.2 92)" fill="#f2dfa8"/><ellipse cx="300.2" cy="169.6" rx="5" ry="2.4" transform="rotate(132.5 300.2 169.6)" fill="#efe6d2"/><ellipse cx="179.2" cy="180.4" rx="5" ry="2.4" transform="rotate(146 179.2 180.4)" fill="#efe6d2"/><ellipse cx="197.7" cy="164.4" rx="5" ry="2.4" transform="rotate(158.9 197.7 164.4)" fill="#efe6d2"/><ellipse cx="307.3" cy="249.1" rx="5" ry="2.4" transform="rotate(7.5 307.3 249.1)" fill="#f2dfa8"/><ellipse cx="234.2" cy="280.1" rx="5" ry="2.4" transform="rotate(74.5 234.2 280.1)" fill="#f2dfa8"/><ellipse cx="305.6" cy="159.5" rx="5" ry="2.4" transform="rotate(81.7 305.6 159.5)" fill="#f2dfa8"/><ellipse cx="181.3" cy="131" rx="5" ry="2.4" transform="rotate(154 181.3 131)" fill="#efe6d2"/><ellipse cx="270.6" cy="135.9" rx="5" ry="2.4" transform="rotate(13.5 270.6 135.9)" fill="#f2dfa8"/><ellipse cx="291.9" cy="241.1" rx="5" ry="2.4" transform="rotate(71.4 291.9 241.1)" fill="#f2dfa8"/><ellipse cx="178.8" cy="252.6" rx="5" ry="2.4" transform="rotate(175.3 178.8 252.6)" fill="#efe6d2"/><ellipse cx="325.7" cy="199.9" rx="5" ry="2.4" transform="rotate(164.5 325.7 199.9)" fill="#efe6d2"/><ellipse cx="181" cy="149.1" rx="5" ry="2.4" transform="rotate(99.7 181 149.1)" fill="#f2dfa8"/><ellipse cx="149.2" cy="208.4" rx="5" ry="2.4" transform="rotate(152 149.2 208.4)" fill="#efe6d2"/><ellipse cx="282.9" cy="192" rx="5" ry="2.4" transform="rotate(62.1 282.9 192)" fill="#f2dfa8"/><ellipse cx="147.6" cy="173.5" rx="5" ry="2.4" transform="rotate(140.9 147.6 173.5)" fill="#efe6d2"/><ellipse cx="228.3" cy="141.9" rx="5" ry="2.4" transform="rotate(116.2 228.3 141.9)" fill="#f2dfa8"/><ellipse cx="194.3" cy="110.7" rx="5" ry="2.4" transform="rotate(31.8 194.3 110.7)" fill="#f2dfa8"/><ellipse cx="206.2" cy="228.9" rx="5" ry="2.4" transform="rotate(22.5 206.2 228.9)" fill="#f2dfa8"/><ellipse cx="300" cy="262.6" rx="5" ry="2.4" transform="rotate(75.5 300 262.6)" fill="#f2dfa8"/><ellipse cx="259" cy="150.7" rx="5" ry="2.4" transform="rotate(101.7 259 150.7)" fill="#f2dfa8"/><ellipse cx="212.2" cy="106.3" rx="5" ry="2.4" transform="rotate(39.6 212.2 106.3)" fill="#f2dfa8"/><ellipse cx="223" cy="103.4" rx="5" ry="2.4" transform="rotate(172.1 223 103.4)" fill="#efe6d2"/><ellipse cx="157.9" cy="160.5" rx="5" ry="2.4" transform="rotate(53.8 157.9 160.5)" fill="#f2dfa8"/><ellipse cx="327.3" cy="194.6" rx="5" ry="2.4" transform="rotate(33.6 327.3 194.6)" fill="#f2dfa8"/><ellipse cx="206.3" cy="164.7" rx="5" ry="2.4" transform="rotate(73.9 206.3 164.7)" fill="#f2dfa8"/><ellipse cx="292.2" cy="211.1" rx="5" ry="2.4" transform="rotate(20.4 292.2 211.1)" fill="#f2dfa8"/><ellipse cx="218.4" cy="195.5" rx="5" ry="2.4" transform="rotate(59.6 218.4 195.5)" fill="#f2dfa8"/><ellipse cx="169.1" cy="134.6" rx="5" ry="2.4" transform="rotate(2.6 169.1 134.6)" fill="#f2dfa8"/><ellipse cx="325.6" cy="204" rx="5" ry="2.4" transform="rotate(3.1 325.6 204)" fill="#f2dfa8"/><ellipse cx="171.2" cy="140.3" rx="5" ry="2.4" transform="rotate(139.9 171.2 140.3)" fill="#efe6d2"/><ellipse cx="283.7" cy="117.5" rx="5" ry="2.4" transform="rotate(93 283.7 117.5)" fill="#f2dfa8"/><ellipse cx="302.1" cy="237.4" rx="5" ry="2.4" transform="rotate(142.9 302.1 237.4)" fill="#efe6d2"/><ellipse cx="284.1" cy="160.1" rx="5" ry="2.4" transform="rotate(113.8 284.1 160.1)" fill="#f2dfa8"/><ellipse cx="270.1" cy="251.7" rx="5" ry="2.4" transform="rotate(169.7 270.1 251.7)" fill="#efe6d2"/><ellipse cx="231.3" cy="262.9" rx="5" ry="2.4" transform="rotate(126.6 231.3 262.9)" fill="#efe6d2"/><ellipse cx="329.7" cy="182" rx="5" ry="2.4" transform="rotate(58.8 329.7 182)" fill="#f2dfa8"/><ellipse cx="303.4" cy="149.5" rx="5" ry="2.4" transform="rotate(73 303.4 149.5)" fill="#f2dfa8"/><ellipse cx="279.4" cy="265.9" rx="5" ry="2.4" transform="rotate(26.1 279.4 265.9)" fill="#f2dfa8"/><ellipse cx="314.8" cy="120.3" rx="5" ry="2.4" transform="rotate(8.5 314.8 120.3)" fill="#f2dfa8"/><ellipse cx="293.1" cy="198.1" rx="5" ry="2.4" transform="rotate(49.6 293.1 198.1)" fill="#f2dfa8"/><ellipse cx="166.2" cy="182.6" rx="5" ry="2.4" transform="rotate(137.2 166.2 182.6)" fill="#efe6d2"/><ellipse cx="291.7" cy="107.8" rx="5" ry="2.4" transform="rotate(75.4 291.7 107.8)" fill="#f2dfa8"/><ellipse cx="219.5" cy="262.2" rx="5" ry="2.4" transform="rotate(7.7 219.5 262.2)" fill="#f2dfa8"/><ellipse cx="203.7" cy="123.6" rx="5" ry="2.4" transform="rotate(1.5 203.7 123.6)" fill="#f2dfa8"/><ellipse cx="248.2" cy="184.4" rx="5" ry="2.4" transform="rotate(105.6 248.2 184.4)" fill="#f2dfa8"/><ellipse cx="177" cy="230.7" rx="5" ry="2.4" transform="rotate(30.3 177 230.7)" fill="#f2dfa8"/><ellipse cx="158.7" cy="145" rx="5" ry="2.4" transform="rotate(41.5 158.7 145)" fill="#f2dfa8"/><ellipse cx="191" cy="170.7" rx="5" ry="2.4" transform="rotate(141 191 170.7)" fill="#efe6d2"/><ellipse cx="236.4" cy="198.1" rx="5" ry="2.4" transform="rotate(18.9 236.4 198.1)" fill="#f2dfa8"/><ellipse cx="205.9" cy="121.5" rx="5" ry="2.4" transform="rotate(154.7 205.9 121.5)" fill="#efe6d2"/><ellipse cx="194.9" cy="129.6" rx="5" ry="2.4" transform="rotate(169.5 194.9 129.6)" fill="#efe6d2"/><ellipse cx="293.7" cy="259.7" rx="5" ry="2.4" transform="rotate(146.1 293.7 259.7)" fill="#efe6d2"/><ellipse cx="255.3" cy="195.7" rx="5" ry="2.4" transform="rotate(171.3 255.3 195.7)" fill="#efe6d2"/><ellipse cx="182.2" cy="138.2" rx="5" ry="2.4" transform="rotate(130 182.2 138.2)" fill="#efe6d2"/><ellipse cx="293.2" cy="214.3" rx="5" ry="2.4" transform="rotate(123 293.2 214.3)" fill="#f2dfa8"/><ellipse cx="257" cy="238.2" rx="5" ry="2.4" transform="rotate(1.2 257 238.2)" fill="#f2dfa8"/><ellipse cx="264" cy="94.4" rx="5" ry="2.4" transform="rotate(28.6 264 94.4)" fill="#f2dfa8"/><ellipse cx="220.9" cy="266.4" rx="5" ry="2.4" transform="rotate(155.8 220.9 266.4)" fill="#efe6d2"/><rect x="293.8" y="174.2" width="7" height="7" rx="2" fill="#f5c53a"/><rect x="242.5" y="206.6" width="7" height="7" rx="2" fill="#f5c53a"/><rect x="295.8" y="128.2" width="7" height="7" rx="2" fill="#f5c53a"/><rect x="281.1" y="226.3" width="7" height="7" rx="2" fill="#f5c53a"/><rect x="158.3" y="167.4" width="7" height="7" rx="2" fill="#f5c53a"/><rect x="190.6" y="186.6" width="7" height="7" rx="2" fill="#f5c53a"/><rect x="281.1" y="150.5" width="7" height="7" rx="2" fill="#f5c53a"/><rect x="166.4" y="232.2" width="7" height="7" rx="2" fill="#f5c53a"/><rect x="226.1" y="207.4" width="7" height="7" rx="2" fill="#f5c53a"/><rect x="223" y="249.8" width="7" height="7" rx="2" fill="#f5c53a"/><rect x="197.8" y="218.2" width="7" height="7" rx="2" fill="#f5c53a"/><rect x="211.4" y="208.3" width="7" height="7" rx="2" fill="#f5c53a"/><rect x="159.2" y="168.3" width="7" height="7" rx="2" fill="#f5c53a"/><rect x="313.4" y="209.3" width="7" height="7" rx="2" fill="#f5c53a"/><rect x="285.5" y="209.5" width="7" height="7" rx="2" fill="#f5c53a"/><rect x="156.9" y="186.1" width="7" height="7" rx="2" fill="#f5c53a"/><rect x="211.1" y="123.1" width="7" height="7" rx="2" fill="#f5c53a"/><rect x="250.9" y="177.6" width="7" height="7" rx="2" fill="#f5c53a"/><circle cx="267" cy="206" r="5" fill="#5f9a42"/><circle cx="190.5" cy="153.7" r="5" fill="#5f9a42"/><circle cx="181.3" cy="208" r="5" fill="#5f9a42"/><circle cx="328.2" cy="170.8" r="5" fill="#5f9a42"/><circle cx="249.7" cy="122.2" r="5" fill="#5f9a42"/><circle cx="318.2" cy="196.6" r="5" fill="#5f9a42"/><circle cx="174.7" cy="131.2" r="5" fill="#5f9a42"/><circle cx="167.9" cy="183.7" r="5" fill="#5f9a42"/><circle cx="179.1" cy="234.7" r="5" fill="#5f9a42"/><circle cx="296.3" cy="213.8" r="5" fill="#5f9a42"/><circle cx="196.4" cy="175.4" r="5" fill="#5f9a42"/><circle cx="296.3" cy="213.5" r="5" fill="#5f9a42"/><circle cx="273.6" cy="263.6" r="5" fill="#5f9a42"/><circle cx="250.9" cy="246.8" r="5" fill="#5f9a42"/><circle cx="205.2" cy="223.7" r="5" fill="#5f9a42"/><circle cx="204.9" cy="169.7" r="5" fill="#5f9a42"/><rect x="278.8" y="218.9" width="12" height="8" rx="3" fill="#f2d25a"/><rect x="291.2" y="176.7" width="12" height="8" rx="3" fill="#f2d25a"/><rect x="287.6" y="148.3" width="12" height="8" rx="3" fill="#f2d25a"/><rect x="196.9" y="246.1" width="12" height="8" rx="3" fill="#f2d25a"/><rect x="215.1" y="208.7" width="12" height="8" rx="3" fill="#f2d25a"/><rect x="201.8" y="192.5" width="12" height="8" rx="3" fill="#f2d25a"/><rect x="299.5" y="224.2" width="12" height="8" rx="3" fill="#f2d25a"/><rect x="237.5" y="111.7" width="12" height="8" rx="3" fill="#f2d25a"/><rect x="193.3" y="153.8" width="12" height="8" rx="3" fill="#f2d25a"/><rect x="236.5" y="117.6" width="12" height="8" rx="3" fill="#f2d25a"/><g transform="rotate(38.1 242.5 217.1)" filter="url(#sm)"><rect x="229.9" y="208.3" width="25.2" height="17.5" rx="7" fill="url(#chick)"/><path d="M234.1 212.7 l15.8 0 M234.1 220 l15.8 0" stroke="#7a4518" stroke-opacity=".35" stroke-width="2.5" stroke-linecap="round"/></g><g transform="rotate(-21.8 211.5 224.6)" filter="url(#sm)"><rect x="202.2" y="217.9" width="18.6" height="13.5" rx="7" fill="url(#chick)"/><path d="M205.3 221.3 l11.6 0 M205.3 226.9 l11.6 0" stroke="#7a4518" stroke-opacity=".35" stroke-width="2.5" stroke-linecap="round"/></g><g transform="rotate(2.1 184.5 178.9)" filter="url(#sm)"><rect x="173.8" y="171.3" width="21.2" height="15.1" rx="7" fill="url(#chick)"/><path d="M177.4 175.1 l13.3 0 M177.4 181.4 l13.3 0" stroke="#7a4518" stroke-opacity=".35" stroke-width="2.5" stroke-linecap="round"/></g><g transform="rotate(-18 288.8 219.7)" filter="url(#sm)"><rect x="279.3" y="212.8" width="19" height="13.8" rx="7" fill="url(#chick)"/><path d="M282.4 216.2 l11.9 0 M282.4 222 l11.9 0" stroke="#7a4518" stroke-opacity=".35" stroke-width="2.5" stroke-linecap="round"/></g><g transform="rotate(-22.4 210.6 133.2)" filter="url(#sm)"><rect x="201.3" y="126.5" width="18.5" height="13.5" rx="7" fill="url(#chick)"/><path d="M204.4 129.8 l11.6 0 M204.4 135.5 l11.6 0" stroke="#7a4518" stroke-opacity=".35" stroke-width="2.5" stroke-linecap="round"/></g><ellipse cx="182.7" cy="213.1" rx="3" ry="1.6" transform="rotate(22.8 182.7 213.1)" fill="#3f7a2e"/><ellipse cx="311" cy="176.7" rx="3" ry="1.6" transform="rotate(159.9 311 176.7)" fill="#3f7a2e"/><ellipse cx="282.9" cy="189.8" rx="3" ry="1.6" transform="rotate(109 282.9 189.8)" fill="#3f7a2e"/><ellipse cx="198.9" cy="256.8" rx="3" ry="1.6" transform="rotate(78.4 198.9 256.8)" fill="#3f7a2e"/><ellipse cx="269" cy="148.2" rx="3" ry="1.6" transform="rotate(70.5 269 148.2)" fill="#3f7a2e"/><ellipse cx="275.3" cy="153.3" rx="3" ry="1.6" transform="rotate(84.3 275.3 153.3)" fill="#3f7a2e"/><ellipse cx="305.9" cy="212.1" rx="3" ry="1.6" transform="rotate(127.5 305.9 212.1)" fill="#3f7a2e"/><ellipse cx="159.3" cy="202.1" rx="3" ry="1.6" transform="rotate(165 159.3 202.1)" fill="#3f7a2e"/><ellipse cx="157.2" cy="193" rx="3" ry="1.6" transform="rotate(69.8 157.2 193)" fill="#3f7a2e"/><ellipse cx="253.3" cy="102.4" rx="3" ry="1.6" transform="rotate(129.8 253.3 102.4)" fill="#3f7a2e"/><ellipse cx="286.3" cy="217.2" rx="3" ry="1.6" transform="rotate(154.4 286.3 217.2)" fill="#3f7a2e"/><ellipse cx="176.5" cy="174.2" rx="3" ry="1.6" transform="rotate(102.3 176.5 174.2)" fill="#3f7a2e"/><ellipse cx="225.6" cy="242.5" rx="3" ry="1.6" transform="rotate(165.8 225.6 242.5)" fill="#3f7a2e"/><ellipse cx="154.5" cy="160.7" rx="3" ry="1.6" transform="rotate(92.6 154.5 160.7)" fill="#3f7a2e"/><ellipse cx="256" cy="117.3" rx="3" ry="1.6" transform="rotate(156.2 256 117.3)" fill="#3f7a2e"/><ellipse cx="274.6" cy="144.2" rx="3" ry="1.6" transform="rotate(98.4 274.6 144.2)" fill="#3f7a2e"/><ellipse cx="246.2" cy="275.7" rx="3" ry="1.6" transform="rotate(136.2 246.2 275.7)" fill="#3f7a2e"/><ellipse cx="241.9" cy="181.4" rx="3" ry="1.6" transform="rotate(62.4 241.9 181.4)" fill="#3f7a2e"/><rect width="480" height="360" fill="url(#vig)"/></svg>