<svg xmlns="http://www.w3.org/2000/svg" viewBox="0 0 480 360" width="480" height="360">
<defs>
  <filter id="sh" x="-20%" y="-20%" width="140%" height="150%"><feDropShadow dx="0" dy="10" stdDeviation="12" flood-color="#3a2410" flood-opacity=".28"/></filter>
  <filter id="sm" x="-30%" y="-30%" width="160%" height="160%"><feDropShadow dx="0" dy="2" stdDeviation="2" flood-color="#3a2410" flood-opacity=".25"/></filter>
  <radialGradient id="plate" cx="50%" cy="45%" r="55%"><stop offset="0" stop-color="#ffffff"/><stop offset=".8" stop-color="#f6f2ec"/><stop offset="1" stop-color="#e9e2d8"/></radialGradient>
  <radialGradient id="vig" cx="50%" cy="45%" r="75%"><stop offset=".55" stop-color="#000" stop-opacity="0"/><stop offset="1" stop-color="#2a1608" stop-opacity=".28"/></radialGradient>
  <radialGradient id="chick" cx="40%" cy="35%" r="70%"><stop offset="0" stop-color="#e8b878"/><stop offset=".7" stop-color="#c98a4a"/><stop offset="1" stop-color="#a5662f"/></radialGradient>
  <radialGradient id="beef" cx="40%" cy="35%" r="70%"><stop offset="0" stop-color="#9a5a3c"/><stop offset="1" stop-color="#5e2f1d"/></radialGradient>
  <radialGradient id="pot" cx="35%" cy="30%" r="75%"><stop offset="0" stop-color="#f6d27a"/><stop offset=".75" stop-color="#e2a748"/><stop offset="1" stop-color="#c4822c"/></radialGradient>
  <radialGradient id="yolk" cx="40%" cy="35%" r="65%"><stop offset="0" stop-color="#ffd25a"/><stop offset="1" stop-color="#f29a1c"/></radialGradient>
  <radialGradient id="glass" cx="50%" cy="50%" r="50%"><stop offset=".86" stop-color="#ffffff" stop-opacity="0"/><stop offset=".93" stop-color="#ffffff" stop-opacity=".75"/><stop offset="1" stop-color="#cfd8dc" stop-opacity=".9"/></radialGradient>
</defs><rect width="480" height="360" fill="#e2b06a"/>
  <g opacity=".18"><rect x="0" y="0" width="480" height="10" fill="#cf9a52"/><rect x="0" y="32" width="480" height="10" fill="#cf9a52"/><rect x="0" y="64" width="480" height="10" fill="#cf9a52"/><rect x="0" y="96" width="480" height="10" fill="#cf9a52"/><rect x="0" y="128" width="480" height="10" fill="#cf9a52"/><rect x="0" y="160" width="480" height="10" fill="#cf9a52"/><rect x="0" y="192" width="480" height="10" fill="#cf9a52"/><rect x="0" y="224" width="480" height="10" fill="#cf9a52"/><rect x="0" y="256" width="480" height="10" fill="#cf9a52"/><rect x="0" y="288" width="480" height="10" fill="#cf9a52"/><rect x="0" y="320" width="480" height="10" fill="#cf9a52"/><rect x="0" y="352" width="480" height="10" fill="#cf9a52"/></g><g transform="rotate(-14 70 300)" filter="url(#sm)"><rect x="-10" y="250" width="150" height="120" rx="6" fill="#2f7a6a"/><rect x="-10" y="262" width="150" height="4" fill="#fff" opacity=".5"/><rect x="-10" y="350" width="150" height="4" fill="#fff" opacity=".5"/></g><g transform="rotate(8 420 190)" filter="url(#sm)"><rect x="414" y="120" width="10" height="170" rx="5" fill="#d9d4cc"/><rect x="404" y="60" width="30" height="70" rx="10" fill="#e6e1d9"/><rect x="406" y="40" width="4" height="40" rx="2" fill="#e6e1d9"/><rect x="413" y="40" width="4" height="40" rx="2" fill="#e6e1d9"/><rect x="420" y="40" width="4" height="40" rx="2" fill="#e6e1d9"/><rect x="427" y="40" width="4" height="40" rx="2" fill="#e6e1d9"/></g><circle cx="240" cy="186" r="138" fill="#d9583b" filter="url(#sh)"/><circle cx="240" cy="186" r="118.67999999999999" fill="#f6efe2"/><circle cx="240" cy="186" r="118.67999999999999" fill="none" stroke="#000" stroke-opacity=".08" stroke-width="6"/><circle cx="190" cy="156" r="50" fill="#f4eee0"/><ellipse cx="180.4" cy="127.8" rx="5" ry="2.4" transform="rotate(171.6 180.4 127.8)" fill="#efe6d2"/><ellipse cx="204.8" cy="123.8" rx="5" ry="2.4" transform="rotate(144.3 204.8 123.8)" fill="#efe6d2"/><ellipse cx="197.5" cy="167.4" rx="5" ry="2.4" transform="rotate(107.6 197.5 167.4)" fill="#fffdf6"/><ellipse cx="161" cy="166.7" rx="5" ry="2.4" transform="rotate(135.3 161 166.7)" fill="#efe6d2"/><ellipse cx="219.5" cy="182.4" rx="5" ry="2.4" transform="rotate(150.8 219.5 182.4)" fill="#efe6d2"/><ellipse cx="197.4" cy="160.5" rx="5" ry="2.4" transform="rotate(78.8 197.4 160.5)" fill="#fffdf6"/><ellipse cx="191" cy="118.7" rx="5" ry="2.4" transform="rotate(37.2 191 118.7)" fill="#fffdf6"/><ellipse cx="194.2" cy="181.4" rx="5" ry="2.4" transform="rotate(72.4 194.2 181.4)" fill="#fffdf6"/><ellipse cx="174.6" cy="123.9" rx="5" ry="2.4" transform="rotate(79.5 174.6 123.9)" fill="#fffdf6"/><ellipse cx="218.6" cy="175.7" rx="5" ry="2.4" transform="rotate(101.5 218.6 175.7)" fill="#fffdf6"/><ellipse cx="147.2" cy="167.9" rx="5" ry="2.4" transform="rotate(129.5 147.2 167.9)" fill="#efe6d2"/><ellipse cx="232.1" cy="157.4" rx="5" ry="2.4" transform="rotate(24.7 232.1 157.4)" fill="#fffdf6"/><ellipse cx="149.6" cy="148.5" rx="5" ry="2.4" transform="rotate(38.6 149.6 148.5)" fill="#fffdf6"/><ellipse cx="212.5" cy="128.7" rx="5" ry="2.4" transform="rotate(179.9 212.5 128.7)" fill="#efe6d2"/><ellipse cx="206" cy="119.5" rx="5" ry="2.4" transform="rotate(8 206 119.5)" fill="#fffdf6"/><ellipse cx="177.1" cy="113.4" rx="5" ry="2.4" transform="rotate(171.9 177.1 113.4)" fill="#efe6d2"/><ellipse cx="191.2" cy="128.6" rx="5" ry="2.4" transform="rotate(25.7 191.2 128.6)" fill="#fffdf6"/><ellipse cx="149.9" cy="157.8" rx="5" ry="2.4" transform="rotate(116 149.9 157.8)" fill="#fffdf6"/><ellipse cx="188.2" cy="174.8" rx="5" ry="2.4" transform="rotate(98.5 188.2 174.8)" fill="#fffdf6"/><ellipse cx="184.7" cy="185.3" rx="5" ry="2.4" transform="rotate(96.3 184.7 185.3)" fill="#fffdf6"/><ellipse cx="203.4" cy="172.7" rx="5" ry="2.4" transform="rotate(107.5 203.4 172.7)" fill="#fffdf6"/><ellipse cx="178.1" cy="151.6" rx="5" ry="2.4" transform="rotate(38.6 178.1 151.6)" fill="#fffdf6"/><ellipse cx="148.1" cy="139" rx="5" ry="2.4" transform="rotate(119.4 148.1 139)" fill="#fffdf6"/><ellipse cx="186.8" cy="142.1" rx="5" ry="2.4" transform="rotate(89.7 186.8 142.1)" fill="#fffdf6"/><ellipse cx="198" cy="186.3" rx="5" ry="2.4" transform="rotate(151.8 198 186.3)" fill="#efe6d2"/><ellipse cx="179.8" cy="159.9" rx="5" ry="2.4" transform="rotate(71.7 179.8 159.9)" fill="#fffdf6"/><ellipse cx="186.9" cy="178.7" rx="5" ry="2.4" transform="rotate(106.8 186.9 178.7)" fill="#fffdf6"/><ellipse cx="166.1" cy="133.1" rx="5" ry="2.4" transform="rotate(21.6 166.1 133.1)" fill="#fffdf6"/><ellipse cx="165.4" cy="130.5" rx="5" ry="2.4" transform="rotate(23 165.4 130.5)" fill="#fffdf6"/><ellipse cx="198.6" cy="116.9" rx="5" ry="2.4" transform="rotate(145.3 198.6 116.9)" fill="#efe6d2"/><ellipse cx="234" cy="150.3" rx="5" ry="2.4" transform="rotate(114.6 234 150.3)" fill="#fffdf6"/><ellipse cx="152.5" cy="135.5" rx="5" ry="2.4" transform="rotate(175 152.5 135.5)" fill="#efe6d2"/><ellipse cx="185.3" cy="195.2" rx="5" ry="2.4" transform="rotate(92.8 185.3 195.2)" fill="#fffdf6"/><ellipse cx="215.1" cy="186.3" rx="5" ry="2.4" transform="rotate(56.7 215.1 186.3)" fill="#fffdf6"/><ellipse cx="196.7" cy="163.6" rx="5" ry="2.4" transform="rotate(171.5 196.7 163.6)" fill="#efe6d2"/><ellipse cx="159.1" cy="138.8" rx="5" ry="2.4" transform="rotate(44 159.1 138.8)" fill="#fffdf6"/><ellipse cx="147" cy="168.8" rx="5" ry="2.4" transform="rotate(162.5 147 168.8)" fill="#efe6d2"/><ellipse cx="173.9" cy="166.7" rx="5" ry="2.4" transform="rotate(117.6 173.9 166.7)" fill="#fffdf6"/><ellipse cx="186.2" cy="138.1" rx="5" ry="2.4" transform="rotate(144.6 186.2 138.1)" fill="#efe6d2"/><ellipse cx="207.5" cy="193.4" rx="5" ry="2.4" transform="rotate(126.9 207.5 193.4)" fill="#efe6d2"/><ellipse cx="204.5" cy="197.2" rx="5" ry="2.4" transform="rotate(156.8 204.5 197.2)" fill="#efe6d2"/><ellipse cx="185" cy="113.6" rx="5" ry="2.4" transform="rotate(67.6 185 113.6)" fill="#fffdf6"/><ellipse cx="206.9" cy="173.6" rx="5" ry="2.4" transform="rotate(101.2 206.9 173.6)" fill="#fffdf6"/><ellipse cx="197.2" cy="187.3" rx="5" ry="2.4" transform="rotate(101.4 197.2 187.3)" fill="#fffdf6"/><ellipse cx="155.6" cy="159.1" rx="5" ry="2.4" transform="rotate(55.6 155.6 159.1)" fill="#fffdf6"/><ellipse cx="215.8" cy="131.7" rx="5" ry="2.4" transform="rotate(97.1 215.8 131.7)" fill="#fffdf6"/><ellipse cx="207.6" cy="156.6" rx="5" ry="2.4" transform="rotate(10.2 207.6 156.6)" fill="#fffdf6"/><ellipse cx="192.8" cy="163.2" rx="5" ry="2.4" transform="rotate(124.8 192.8 163.2)" fill="#fffdf6"/><ellipse cx="224.7" cy="133" rx="5" ry="2.4" transform="rotate(175.4 224.7 133)" fill="#efe6d2"/><ellipse cx="181.1" cy="179.4" rx="5" ry="2.4" transform="rotate(130.4 181.1 179.4)" fill="#efe6d2"/><ellipse cx="212.5" cy="124.2" rx="5" ry="2.4" transform="rotate(2.9 212.5 124.2)" fill="#fffdf6"/><ellipse cx="185.1" cy="116.8" rx="5" ry="2.4" transform="rotate(174.6 185.1 116.8)" fill="#efe6d2"/><ellipse cx="195.4" cy="162.8" rx="5" ry="2.4" transform="rotate(74.8 195.4 162.8)" fill="#fffdf6"/><ellipse cx="150.8" cy="179.5" rx="5" ry="2.4" transform="rotate(43.6 150.8 179.5)" fill="#fffdf6"/><ellipse cx="177.8" cy="137.9" rx="5" ry="2.4" transform="rotate(124.8 177.8 137.9)" fill="#fffdf6"/><ellipse cx="174.5" cy="140.1" rx="5" ry="2.4" transform="rotate(124.9 174.5 140.1)" fill="#fffdf6"/><ellipse cx="213.2" cy="195.4" rx="5" ry="2.4" transform="rotate(166.2 213.2 195.4)" fill="#efe6d2"/><ellipse cx="185.9" cy="135.9" rx="5" ry="2.4" transform="rotate(116.8 185.9 135.9)" fill="#fffdf6"/><ellipse cx="210.7" cy="154.2" rx="5" ry="2.4" transform="rotate(170.4 210.7 154.2)" fill="#efe6d2"/><ellipse cx="149" cy="171.9" rx="5" ry="2.4" transform="rotate(61.6 149 171.9)" fill="#fffdf6"/><ellipse cx="216.5" cy="185.5" rx="5" ry="2.4" transform="rotate(78.9 216.5 185.5)" fill="#fffdf6"/><ellipse cx="223.5" cy="141.3" rx="5" ry="2.4" transform="rotate(164.9 223.5 141.3)" fill="#efe6d2"/><ellipse cx="208.1" cy="170.5" rx="5" ry="2.4" transform="rotate(58.6 208.1 170.5)" fill="#fffdf6"/><ellipse cx="174.6" cy="115.6" rx="5" ry="2.4" transform="rotate(23.1 174.6 115.6)" fill="#fffdf6"/><ellipse cx="174.5" cy="179.3" rx="5" ry="2.4" transform="rotate(105.5 174.5 179.3)" fill="#fffdf6"/><ellipse cx="196.3" cy="171.9" rx="5" ry="2.4" transform="rotate(157.7 196.3 171.9)" fill="#efe6d2"/><ellipse cx="206.8" cy="184.5" rx="5" ry="2.4" transform="rotate(174.6 206.8 184.5)" fill="#efe6d2"/><ellipse cx="202.2" cy="157.9" rx="5" ry="2.4" transform="rotate(18.9 202.2 157.9)" fill="#fffdf6"/><ellipse cx="185.3" cy="122" rx="5" ry="2.4" transform="rotate(46.3 185.3 122)" fill="#fffdf6"/><ellipse cx="204.2" cy="139.3" rx="5" ry="2.4" transform="rotate(142.9 204.2 139.3)" fill="#efe6d2"/><ellipse cx="174.8" cy="151.7" rx="5" ry="2.4" transform="rotate(64 174.8 151.7)" fill="#fffdf6"/><ellipse cx="218.4" cy="148.9" rx="5" ry="2.4" transform="rotate(143.7 218.4 148.9)" fill="#efe6d2"/><ellipse cx="187" cy="122.5" rx="5" ry="2.4" transform="rotate(73.4 187 122.5)" fill="#fffdf6"/><ellipse cx="194.9" cy="116.1" rx="5" ry="2.4" transform="rotate(32.4 194.9 116.1)" fill="#fffdf6"/><ellipse cx="192.3" cy="151.8" rx="5" ry="2.4" transform="rotate(34.3 192.3 151.8)" fill="#fffdf6"/><ellipse cx="208.2" cy="169" rx="5" ry="2.4" transform="rotate(108.2 208.2 169)" fill="#fffdf6"/><ellipse cx="158.4" cy="126.4" rx="5" ry="2.4" transform="rotate(0.4 158.4 126.4)" fill="#fffdf6"/><ellipse cx="181" cy="122.3" rx="5" ry="2.4" transform="rotate(36.2 181 122.3)" fill="#fffdf6"/><ellipse cx="197.6" cy="159.6" rx="5" ry="2.4" transform="rotate(2.2 197.6 159.6)" fill="#fffdf6"/><ellipse cx="208.8" cy="131.1" rx="5" ry="2.4" transform="rotate(75.1 208.8 131.1)" fill="#fffdf6"/><ellipse cx="176" cy="161.3" rx="5" ry="2.4" transform="rotate(48.8 176 161.3)" fill="#fffdf6"/><ellipse cx="184.2" cy="153.5" rx="5" ry="2.4" transform="rotate(54.1 184.2 153.5)" fill="#fffdf6"/><ellipse cx="192.8" cy="168.7" rx="5" ry="2.4" transform="rotate(48.4 192.8 168.7)" fill="#fffdf6"/><ellipse cx="223.5" cy="185.8" rx="5" ry="2.4" transform="rotate(50.5 223.5 185.8)" fill="#fffdf6"/><ellipse cx="185.5" cy="163.8" rx="5" ry="2.4" transform="rotate(125.9 185.5 163.8)" fill="#fffdf6"/><ellipse cx="147.9" cy="162.4" rx="5" ry="2.4" transform="rotate(158.9 147.9 162.4)" fill="#efe6d2"/><ellipse cx="226.6" cy="146.2" rx="5" ry="2.4" transform="rotate(171.3 226.6 146.2)" fill="#efe6d2"/><ellipse cx="167.8" cy="166.2" rx="5" ry="2.4" transform="rotate(170.9 167.8 166.2)" fill="#efe6d2"/><ellipse cx="202.1" cy="125" rx="5" ry="2.4" transform="rotate(77 202.1 125)" fill="#fffdf6"/><ellipse cx="205.3" cy="114.4" rx="5" ry="2.4" transform="rotate(32 205.3 114.4)" fill="#fffdf6"/><ellipse cx="170.7" cy="180" rx="5" ry="2.4" transform="rotate(9.7 170.7 180)" fill="#fffdf6"/><ellipse cx="149.5" cy="140.6" rx="5" ry="2.4" transform="rotate(124.8 149.5 140.6)" fill="#fffdf6"/><ellipse cx="204.6" cy="196.9" rx="5" ry="2.4" transform="rotate(176.3 204.6 196.9)" fill="#efe6d2"/><ellipse cx="212" cy="134.4" rx="5" ry="2.4" transform="rotate(115.3 212 134.4)" fill="#fffdf6"/><ellipse cx="205.4" cy="149.9" rx="5" ry="2.4" transform="rotate(75.5 205.4 149.9)" fill="#fffdf6"/><ellipse cx="177.9" cy="155.3" rx="5" ry="2.4" transform="rotate(138.1 177.9 155.3)" fill="#efe6d2"/><ellipse cx="174.6" cy="162.1" rx="5" ry="2.4" transform="rotate(87.9 174.6 162.1)" fill="#fffdf6"/><ellipse cx="183.3" cy="111.3" rx="5" ry="2.4" transform="rotate(89.1 183.3 111.3)" fill="#fffdf6"/><ellipse cx="199.1" cy="177.3" rx="5" ry="2.4" transform="rotate(139.3 199.1 177.3)" fill="#efe6d2"/><ellipse cx="157.6" cy="165.8" rx="5" ry="2.4" transform="rotate(54.9 157.6 165.8)" fill="#fffdf6"/><ellipse cx="221.6" cy="126.8" rx="5" ry="2.4" transform="rotate(153.1 221.6 126.8)" fill="#efe6d2"/><ellipse cx="174.1" cy="175" rx="5" ry="2.4" transform="rotate(51.2 174.1 175)" fill="#fffdf6"/><ellipse cx="159.1" cy="138.6" rx="5" ry="2.4" transform="rotate(175.4 159.1 138.6)" fill="#efe6d2"/><ellipse cx="218" cy="168.5" rx="5" ry="2.4" transform="rotate(110.8 218 168.5)" fill="#fffdf6"/><ellipse cx="191.6" cy="122.1" rx="5" ry="2.4" transform="rotate(84.9 191.6 122.1)" fill="#fffdf6"/><ellipse cx="193.6" cy="200.2" rx="5" ry="2.4" transform="rotate(96.6 193.6 200.2)" fill="#fffdf6"/><ellipse cx="166.7" cy="117.6" rx="5" ry="2.4" transform="rotate(143.1 166.7 117.6)" fill="#efe6d2"/><ellipse cx="203.3" cy="199" rx="5" ry="2.4" transform="rotate(21 203.3 199)" fill="#fffdf6"/><ellipse cx="166.6" cy="155.4" rx="5" ry="2.4" transform="rotate(95.4 166.6 155.4)" fill="#fffdf6"/><ellipse cx="230.6" cy="145.5" rx="5" ry="2.4" transform="rotate(161.7 230.6 145.5)" fill="#efe6d2"/><ellipse cx="177.5" cy="112" rx="5" ry="2.4" transform="rotate(139.5 177.5 112)" fill="#efe6d2"/><ellipse cx="235.4" cy="152.9" rx="5" ry="2.4" transform="rotate(70.5 235.4 152.9)" fill="#fffdf6"/><ellipse cx="208" cy="177.6" rx="5" ry="2.4" transform="rotate(166.5 208 177.6)" fill="#efe6d2"/><ellipse cx="161.6" cy="168.9" rx="5" ry="2.4" transform="rotate(64.6 161.6 168.9)" fill="#fffdf6"/><ellipse cx="200.4" cy="156.1" rx="5" ry="2.4" transform="rotate(169.1 200.4 156.1)" fill="#efe6d2"/><ellipse cx="182.8" cy="123.3" rx="5" ry="2.4" transform="rotate(18.3 182.8 123.3)" fill="#fffdf6"/><ellipse cx="181.6" cy="195.5" rx="5" ry="2.4" transform="rotate(61.7 181.6 195.5)" fill="#fffdf6"/><ellipse cx="221.6" cy="143.2" rx="5" ry="2.4" transform="rotate(74.3 221.6 143.2)" fill="#fffdf6"/><ellipse cx="209.1" cy="139.1" rx="5" ry="2.4" transform="rotate(77.7 209.1 139.1)" fill="#fffdf6"/><ellipse cx="221.5" cy="181.5" rx="5" ry="2.4" transform="rotate(132.9 221.5 181.5)" fill="#efe6d2"/><ellipse cx="173.1" cy="142.2" rx="5" ry="2.4" transform="rotate(17.6 173.1 142.2)" fill="#fffdf6"/><ellipse cx="197.4" cy="150.4" rx="5" ry="2.4" transform="rotate(49 197.4 150.4)" fill="#fffdf6"/><ellipse cx="222.3" cy="140.7" rx="5" ry="2.4" transform="rotate(65.4 222.3 140.7)" fill="#fffdf6"/><ellipse cx="218.8" cy="123.7" rx="5" ry="2.4" transform="rotate(81.5 218.8 123.7)" fill="#fffdf6"/><ellipse cx="193.6" cy="123.4" rx="5" ry="2.4" transform="rotate(122.6 193.6 123.4)" fill="#fffdf6"/><ellipse cx="189.6" cy="159.8" rx="5" ry="2.4" transform="rotate(89.2 189.6 159.8)" fill="#fffdf6"/><ellipse cx="231.1" cy="154" rx="5" ry="2.4" transform="rotate(74.9 231.1 154)" fill="#fffdf6"/><ellipse cx="175.7" cy="150.4" rx="5" ry="2.4" transform="rotate(80.2 175.7 150.4)" fill="#fffdf6"/><ellipse cx="196.5" cy="160.3" rx="5" ry="2.4" transform="rotate(33.2 196.5 160.3)" fill="#fffdf6"/><ellipse cx="208.1" cy="124.4" rx="5" ry="2.4" transform="rotate(114.1 208.1 124.4)" fill="#fffdf6"/><ellipse cx="224.8" cy="161.4" rx="5" ry="2.4" transform="rotate(0.7 224.8 161.4)" fill="#fffdf6"/><ellipse cx="189.7" cy="196.9" rx="5" ry="2.4" transform="rotate(116 189.7 196.9)" fill="#fffdf6"/><ellipse cx="176.1" cy="142.7" rx="5" ry="2.4" transform="rotate(4 176.1 142.7)" fill="#fffdf6"/><ellipse cx="214.3" cy="135.2" rx="5" ry="2.4" transform="rotate(135.8 214.3 135.2)" fill="#efe6d2"/><ellipse cx="208.7" cy="114.5" rx="5" ry="2.4" transform="rotate(6.6 208.7 114.5)" fill="#fffdf6"/><ellipse cx="172.8" cy="161.3" rx="5" ry="2.4" transform="rotate(120.6 172.8 161.3)" fill="#fffdf6"/><ellipse cx="193" cy="193.8" rx="5" ry="2.4" transform="rotate(112.4 193 193.8)" fill="#fffdf6"/><ellipse cx="230.5" cy="152.9" rx="5" ry="2.4" transform="rotate(172.7 230.5 152.9)" fill="#efe6d2"/><ellipse cx="196" cy="161.2" rx="5" ry="2.4" transform="rotate(104.8 196 161.2)" fill="#fffdf6"/><ellipse cx="187.7" cy="174" rx="5" ry="2.4" transform="rotate(54.7 187.7 174)" fill="#fffdf6"/><ellipse cx="226" cy="150.4" rx="5" ry="2.4" transform="rotate(3 226 150.4)" fill="#fffdf6"/><ellipse cx="198.8" cy="138.9" rx="5" ry="2.4" transform="rotate(44.6 198.8 138.9)" fill="#fffdf6"/><ellipse cx="189" cy="126" rx="5" ry="2.4" transform="rotate(175.8 189 126)" fill="#efe6d2"/><ellipse cx="214.1" cy="125.2" rx="5" ry="2.4" transform="rotate(173.3 214.1 125.2)" fill="#efe6d2"/><ellipse cx="201.8" cy="111.8" rx="5" ry="2.4" transform="rotate(84.7 201.8 111.8)" fill="#fffdf6"/><ellipse cx="164.8" cy="171.7" rx="5" ry="2.4" transform="rotate(61 164.8 171.7)" fill="#fffdf6"/><ellipse cx="189.7" cy="153.5" rx="5" ry="2.4" transform="rotate(31.4 189.7 153.5)" fill="#fffdf6"/><ellipse cx="176.8" cy="154.8" rx="5" ry="2.4" transform="rotate(161.6 176.8 154.8)" fill="#efe6d2"/><ellipse cx="169.4" cy="189.4" rx="5" ry="2.4" transform="rotate(113.8 169.4 189.4)" fill="#fffdf6"/><ellipse cx="229.5" cy="176.6" rx="5" ry="2.4" transform="rotate(56.2 229.5 176.6)" fill="#fffdf6"/><ellipse cx="160.5" cy="157.3" rx="5" ry="2.4" transform="rotate(70.7 160.5 157.3)" fill="#fffdf6"/><ellipse cx="204.4" cy="164.8" rx="5" ry="2.4" transform="rotate(20.1 204.4 164.8)" fill="#fffdf6"/><ellipse cx="147.4" cy="142.7" rx="5" ry="2.4" transform="rotate(146.6 147.4 142.7)" fill="#efe6d2"/><ellipse cx="203" cy="156.8" rx="5" ry="2.4" transform="rotate(30.9 203 156.8)" fill="#fffdf6"/><ellipse cx="171.3" cy="134.9" rx="5" ry="2.4" transform="rotate(61.1 171.3 134.9)" fill="#fffdf6"/><ellipse cx="145.7" cy="166.5" rx="5" ry="2.4" transform="rotate(41.3 145.7 166.5)" fill="#fffdf6"/><ellipse cx="219.8" cy="170.1" rx="5" ry="2.4" transform="rotate(65.5 219.8 170.1)" fill="#fffdf6"/><ellipse cx="172.1" cy="187.7" rx="5" ry="2.4" transform="rotate(126.2 172.1 187.7)" fill="#efe6d2"/><ellipse cx="213.4" cy="142.8" rx="5" ry="2.4" transform="rotate(103.9 213.4 142.8)" fill="#fffdf6"/><ellipse cx="183.6" cy="168.5" rx="5" ry="2.4" transform="rotate(143.3 183.6 168.5)" fill="#efe6d2"/><ellipse cx="204.6" cy="136.5" rx="5" ry="2.4" transform="rotate(50.1 204.6 136.5)" fill="#fffdf6"/><ellipse cx="226.4" cy="136.8" rx="5" ry="2.4" transform="rotate(37.7 226.4 136.8)" fill="#fffdf6"/><ellipse cx="165.6" cy="173.5" rx="5" ry="2.4" transform="rotate(146.8 165.6 173.5)" fill="#efe6d2"/><ellipse cx="150.4" cy="155.1" rx="5" ry="2.4" transform="rotate(135.2 150.4 155.1)" fill="#efe6d2"/><ellipse cx="156.3" cy="173.7" rx="5" ry="2.4" transform="rotate(90.7 156.3 173.7)" fill="#fffdf6"/><ellipse cx="145.2" cy="154.5" rx="5" ry="2.4" transform="rotate(6.4 145.2 154.5)" fill="#fffdf6"/><ellipse cx="223.1" cy="124.4" rx="5" ry="2.4" transform="rotate(33 223.1 124.4)" fill="#fffdf6"/><ellipse cx="153.5" cy="149.7" rx="5" ry="2.4" transform="rotate(9.3 153.5 149.7)" fill="#fffdf6"/><ellipse cx="175.6" cy="131" rx="5" ry="2.4" transform="rotate(102 175.6 131)" fill="#fffdf6"/><ellipse cx="181" cy="124.9" rx="5" ry="2.4" transform="rotate(164.8 181 124.9)" fill="#efe6d2"/><ellipse cx="210.4" cy="164.3" rx="5" ry="2.4" transform="rotate(139.3 210.4 164.3)" fill="#efe6d2"/><ellipse cx="189.2" cy="201.7" rx="5" ry="2.4" transform="rotate(123.3 189.2 201.7)" fill="#fffdf6"/><ellipse cx="208.9" cy="178" rx="5" ry="2.4" transform="rotate(86.2 208.9 178)" fill="#fffdf6"/><ellipse cx="229.5" cy="176.4" rx="5" ry="2.4" transform="rotate(102.6 229.5 176.4)" fill="#fffdf6"/><ellipse cx="208.2" cy="185.8" rx="5" ry="2.4" transform="rotate(2.1 208.2 185.8)" fill="#fffdf6"/><ellipse cx="178.7" cy="137.8" rx="5" ry="2.4" transform="rotate(99.4 178.7 137.8)" fill="#fffdf6"/><ellipse cx="199" cy="187.7" rx="5" ry="2.4" transform="rotate(14.6 199 187.7)" fill="#fffdf6"/><ellipse cx="168.7" cy="195.5" rx="5" ry="2.4" transform="rotate(24 168.7 195.5)" fill="#fffdf6"/><ellipse cx="207" cy="116.2" rx="5" ry="2.4" transform="rotate(114.7 207 116.2)" fill="#fffdf6"/><ellipse cx="198.7" cy="182.1" rx="5" ry="2.4" transform="rotate(172.8 198.7 182.1)" fill="#efe6d2"/><ellipse cx="167.8" cy="139.3" rx="5" ry="2.4" transform="rotate(43.8 167.8 139.3)" fill="#fffdf6"/><ellipse cx="192.4" cy="200.1" rx="5" ry="2.4" transform="rotate(47.7 192.4 200.1)" fill="#fffdf6"/><ellipse cx="154" cy="160.5" rx="5" ry="2.4" transform="rotate(64.6 154 160.5)" fill="#fffdf6"/><ellipse cx="189.1" cy="193.7" rx="5" ry="2.4" transform="rotate(126.1 189.1 193.7)" fill="#efe6d2"/><ellipse cx="205.2" cy="171.5" rx="5" ry="2.4" transform="rotate(108 205.2 171.5)" fill="#fffdf6"/><ellipse cx="217.8" cy="154.4" rx="5" ry="2.4" transform="rotate(12.6 217.8 154.4)" fill="#fffdf6"/><ellipse cx="200.2" cy="123.5" rx="5" ry="2.4" transform="rotate(83.2 200.2 123.5)" fill="#fffdf6"/><ellipse cx="164.3" cy="120.7" rx="5" ry="2.4" transform="rotate(172.6 164.3 120.7)" fill="#efe6d2"/><ellipse cx="169.1" cy="142.9" rx="5" ry="2.4" transform="rotate(133 169.1 142.9)" fill="#efe6d2"/><ellipse cx="203" cy="144.5" rx="5" ry="2.4" transform="rotate(31.9 203 144.5)" fill="#fffdf6"/><ellipse cx="153" cy="152.9" rx="5" ry="2.4" transform="rotate(167.9 153 152.9)" fill="#efe6d2"/><ellipse cx="191.4" cy="188" rx="5" ry="2.4" transform="rotate(95.6 191.4 188)" fill="#fffdf6"/><ellipse cx="184.6" cy="180.7" rx="5" ry="2.4" transform="rotate(2.8 184.6 180.7)" fill="#fffdf6"/><ellipse cx="187.6" cy="125.7" rx="5" ry="2.4" transform="rotate(106.2 187.6 125.7)" fill="#fffdf6"/><ellipse cx="211.1" cy="145.3" rx="5" ry="2.4" transform="rotate(158.6 211.1 145.3)" fill="#efe6d2"/><ellipse cx="221.5" cy="155.9" rx="5" ry="2.4" transform="rotate(14.5 221.5 155.9)" fill="#fffdf6"/><ellipse cx="155.4" cy="150.3" rx="5" ry="2.4" transform="rotate(75.1 155.4 150.3)" fill="#fffdf6"/><ellipse cx="164" cy="189" rx="5" ry="2.4" transform="rotate(29.3 164 189)" fill="#fffdf6"/><ellipse cx="226.9" cy="163.6" rx="5" ry="2.4" transform="rotate(58.1 226.9 163.6)" fill="#fffdf6"/><ellipse cx="215.8" cy="192.3" rx="5" ry="2.4" transform="rotate(77.4 215.8 192.3)" fill="#fffdf6"/><ellipse cx="229.8" cy="170" rx="5" ry="2.4" transform="rotate(25.4 229.8 170)" fill="#fffdf6"/><ellipse cx="196.2" cy="151.4" rx="5" ry="2.4" transform="rotate(148.3 196.2 151.4)" fill="#efe6d2"/><ellipse cx="195.9" cy="120.2" rx="5" ry="2.4" transform="rotate(109.4 195.9 120.2)" fill="#fffdf6"/><ellipse cx="182.9" cy="177.3" rx="5" ry="2.4" transform="rotate(19.9 182.9 177.3)" fill="#fffdf6"/><ellipse cx="171.5" cy="179.2" rx="5" ry="2.4" transform="rotate(148.2 171.5 179.2)" fill="#efe6d2"/><ellipse cx="231.7" cy="172.6" rx="5" ry="2.4" transform="rotate(159.9 231.7 172.6)" fill="#efe6d2"/><ellipse cx="219.2" cy="170.9" rx="5" ry="2.4" transform="rotate(7.5 219.2 170.9)" fill="#fffdf6"/><ellipse cx="164.3" cy="144" rx="5" ry="2.4" transform="rotate(119.1 164.3 144)" fill="#fffdf6"/><ellipse cx="200.4" cy="193.5" rx="5" ry="2.4" transform="rotate(103 200.4 193.5)" fill="#fffdf6"/><ellipse cx="174.6" cy="180.6" rx="5" ry="2.4" transform="rotate(15.7 174.6 180.6)" fill="#fffdf6"/><ellipse cx="169.6" cy="147.9" rx="5" ry="2.4" transform="rotate(91.4 169.6 147.9)" fill="#fffdf6"/><ellipse cx="202.2" cy="175.2" rx="5" ry="2.4" transform="rotate(73.6 202.2 175.2)" fill="#fffdf6"/><ellipse cx="202.6" cy="152" rx="5" ry="2.4" transform="rotate(43.7 202.6 152)" fill="#fffdf6"/><ellipse cx="209.4" cy="133.8" rx="5" ry="2.4" transform="rotate(28.3 209.4 133.8)" fill="#fffdf6"/><ellipse cx="207.5" cy="196" rx="5" ry="2.4" transform="rotate(21.8 207.5 196)" fill="#fffdf6"/><ellipse cx="223.4" cy="144.2" rx="5" ry="2.4" transform="rotate(128.1 223.4 144.2)" fill="#efe6d2"/><ellipse cx="173.3" cy="176.6" rx="5" ry="2.4" transform="rotate(110.8 173.3 176.6)" fill="#fffdf6"/><ellipse cx="144.6" cy="152" rx="5" ry="2.4" transform="rotate(20.4 144.6 152)" fill="#fffdf6"/><ellipse cx="219.9" cy="190.4" rx="5" ry="2.4" transform="rotate(40.9 219.9 190.4)" fill="#fffdf6"/><ellipse cx="190.3" cy="155.9" rx="5" ry="2.4" transform="rotate(163.2 190.3 155.9)" fill="#efe6d2"/><ellipse cx="223.3" cy="173" rx="5" ry="2.4" transform="rotate(73.4 223.3 173)" fill="#fffdf6"/><ellipse cx="173" cy="196.4" rx="5" ry="2.4" transform="rotate(99 173 196.4)" fill="#fffdf6"/><ellipse cx="182.8" cy="125.7" rx="5" ry="2.4" transform="rotate(49.7 182.8 125.7)" fill="#fffdf6"/><ellipse cx="184.5" cy="138.8" rx="5" ry="2.4" transform="rotate(79.3 184.5 138.8)" fill="#fffdf6"/><ellipse cx="228.2" cy="148.7" rx="5" ry="2.4" transform="rotate(50.5 228.2 148.7)" fill="#fffdf6"/><ellipse cx="167.5" cy="188.8" rx="5" ry="2.4" transform="rotate(107.6 167.5 188.8)" fill="#fffdf6"/><ellipse cx="205.4" cy="166.8" rx="5" ry="2.4" transform="rotate(69.5 205.4 166.8)" fill="#fffdf6"/><ellipse cx="192.4" cy="175.2" rx="5" ry="2.4" transform="rotate(165.1 192.4 175.2)" fill="#efe6d2"/><ellipse cx="232" cy="137.7" rx="5" ry="2.4" transform="rotate(49.2 232 137.7)" fill="#fffdf6"/><ellipse cx="176.2" cy="134.4" rx="5" ry="2.4" transform="rotate(67.4 176.2 134.4)" fill="#fffdf6"/><ellipse cx="201.1" cy="182.9" rx="5" ry="2.4" transform="rotate(113.1 201.1 182.9)" fill="#fffdf6"/><ellipse cx="162" cy="122" rx="5" ry="2.4" transform="rotate(9.3 162 122)" fill="#fffdf6"/><ellipse cx="227.9" cy="135.2" rx="5" ry="2.4" transform="rotate(59.6 227.9 135.2)" fill="#fffdf6"/><ellipse cx="202" cy="148.2" rx="5" ry="2.4" transform="rotate(10.4 202 148.2)" fill="#fffdf6"/><ellipse cx="214" cy="142.6" rx="5" ry="2.4" transform="rotate(60.7 214 142.6)" fill="#fffdf6"/><ellipse cx="193.6" cy="129.2" rx="5" ry="2.4" transform="rotate(136.7 193.6 129.2)" fill="#efe6d2"/><ellipse cx="184.4" cy="201.5" rx="5" ry="2.4" transform="rotate(152.5 184.4 201.5)" fill="#efe6d2"/><ellipse cx="180.1" cy="122.2" rx="5" ry="2.4" transform="rotate(167.2 180.1 122.2)" fill="#efe6d2"/><ellipse cx="188.8" cy="140.4" rx="5" ry="2.4" transform="rotate(179.1 188.8 140.4)" fill="#efe6d2"/><ellipse cx="178.4" cy="124.8" rx="5" ry="2.4" transform="rotate(156.5 178.4 124.8)" fill="#efe6d2"/><ellipse cx="166.6" cy="130.1" rx="5" ry="2.4" transform="rotate(71.8 166.6 130.1)" fill="#fffdf6"/><ellipse cx="214.3" cy="143.8" rx="5" ry="2.4" transform="rotate(179.9 214.3 143.8)" fill="#efe6d2"/><ellipse cx="198.8" cy="170.4" rx="5" ry="2.4" transform="rotate(86.4 198.8 170.4)" fill="#fffdf6"/><ellipse cx="149.7" cy="158.1" rx="5" ry="2.4" transform="rotate(34.6 149.7 158.1)" fill="#fffdf6"/><ellipse cx="212.4" cy="158.7" rx="5" ry="2.4" transform="rotate(15.8 212.4 158.7)" fill="#fffdf6"/><ellipse cx="164.9" cy="163.5" rx="5" ry="2.4" transform="rotate(14.3 164.9 163.5)" fill="#fffdf6"/><ellipse cx="161" cy="138.9" rx="5" ry="2.4" transform="rotate(132.4 161 138.9)" fill="#efe6d2"/><ellipse cx="233.8" cy="142.9" rx="5" ry="2.4" transform="rotate(167.6 233.8 142.9)" fill="#efe6d2"/><ellipse cx="193.5" cy="134.2" rx="5" ry="2.4" transform="rotate(29.8 193.5 134.2)" fill="#fffdf6"/><ellipse cx="225.3" cy="176.1" rx="5" ry="2.4" transform="rotate(72.1 225.3 176.1)" fill="#fffdf6"/><ellipse cx="190.7" cy="120.1" rx="5" ry="2.4" transform="rotate(26.1 190.7 120.1)" fill="#fffdf6"/><ellipse cx="214.6" cy="157.7" rx="5" ry="2.4" transform="rotate(119.6 214.6 157.7)" fill="#fffdf6"/><ellipse cx="147.8" cy="143.6" rx="5" ry="2.4" transform="rotate(155.6 147.8 143.6)" fill="#efe6d2"/><ellipse cx="154.4" cy="136" rx="5" ry="2.4" transform="rotate(26.5 154.4 136)" fill="#fffdf6"/><ellipse cx="168.3" cy="141.3" rx="5" ry="2.4" transform="rotate(30.2 168.3 141.3)" fill="#fffdf6"/><ellipse cx="216.4" cy="162.7" rx="5" ry="2.4" transform="rotate(70.6 216.4 162.7)" fill="#fffdf6"/><ellipse cx="163.1" cy="154.8" rx="5" ry="2.4" transform="rotate(107.9 163.1 154.8)" fill="#fffdf6"/><ellipse cx="202.9" cy="172.7" rx="5" ry="2.4" transform="rotate(91.6 202.9 172.7)" fill="#fffdf6"/><ellipse cx="175.3" cy="193.9" rx="5" ry="2.4" transform="rotate(6.2 175.3 193.9)" fill="#fffdf6"/><ellipse cx="173.2" cy="169.5" rx="5" ry="2.4" transform="rotate(67.1 173.2 169.5)" fill="#fffdf6"/><circle cx="285" cy="146" r="46" fill="#5e2a22"/><ellipse cx="282.3" cy="147.5" rx="7" ry="4.5" transform="rotate(175.7 282.3 147.5)" fill="#6d2a24"/><ellipse cx="278.2" cy="117" rx="7" ry="4.5" transform="rotate(20.1 278.2 117)" fill="#7e3229"/><ellipse cx="314.5" cy="122.9" rx="7" ry="4.5" transform="rotate(96.9 314.5 122.9)" fill="#6d2a24"/><ellipse cx="286.6" cy="121.4" rx="7" ry="4.5" transform="rotate(133.5 286.6 121.4)" fill="#6d2a24"/><ellipse cx="281.1" cy="157" rx="7" ry="4.5" transform="rotate(46.6 281.1 157)" fill="#7e3229"/><ellipse cx="298.8" cy="136" rx="7" ry="4.5" transform="rotate(169.9 298.8 136)" fill="#6d2a24"/><ellipse cx="253.4" cy="137.8" rx="7" ry="4.5" transform="rotate(41.6 253.4 137.8)" fill="#7e3229"/><ellipse cx="289.4" cy="170.2" rx="7" ry="4.5" transform="rotate(24.8 289.4 170.2)" fill="#7e3229"/><ellipse cx="290.8" cy="108.8" rx="7" ry="4.5" transform="rotate(42.8 290.8 108.8)" fill="#7e3229"/><ellipse cx="251.4" cy="143" rx="7" ry="4.5" transform="rotate(21.9 251.4 143)" fill="#7e3229"/><ellipse cx="271.9" cy="141.9" rx="7" ry="4.5" transform="rotate(101.3 271.9 141.9)" fill="#6d2a24"/><ellipse cx="303.8" cy="160" rx="7" ry="4.5" transform="rotate(149.9 303.8 160)" fill="#6d2a24"/><ellipse cx="274" cy="163.3" rx="7" ry="4.5" transform="rotate(118.4 274 163.3)" fill="#6d2a24"/><ellipse cx="311.5" cy="126.9" rx="7" ry="4.5" transform="rotate(21.9 311.5 126.9)" fill="#7e3229"/><ellipse cx="279.5" cy="125.1" rx="7" ry="4.5" transform="rotate(137.7 279.5 125.1)" fill="#6d2a24"/><ellipse cx="298.1" cy="145.2" rx="7" ry="4.5" transform="rotate(15.6 298.1 145.2)" fill="#7e3229"/><ellipse cx="288.6" cy="161" rx="7" ry="4.5" transform="rotate(112.9 288.6 161)" fill="#6d2a24"/><ellipse cx="259.4" cy="128.3" rx="7" ry="4.5" transform="rotate(58.3 259.4 128.3)" fill="#7e3229"/><ellipse cx="280.3" cy="160.3" rx="7" ry="4.5" transform="rotate(94.3 280.3 160.3)" fill="#6d2a24"/><ellipse cx="248.6" cy="140.9" rx="7" ry="4.5" transform="rotate(130.3 248.6 140.9)" fill="#6d2a24"/><ellipse cx="258.1" cy="160.3" rx="7" ry="4.5" transform="rotate(124.9 258.1 160.3)" fill="#6d2a24"/><ellipse cx="309" cy="150.2" rx="7" ry="4.5" transform="rotate(177.4 309 150.2)" fill="#6d2a24"/><ellipse cx="301.4" cy="167.4" rx="7" ry="4.5" transform="rotate(133.6 301.4 167.4)" fill="#6d2a24"/><ellipse cx="293.1" cy="122" rx="7" ry="4.5" transform="rotate(27.6 293.1 122)" fill="#7e3229"/><ellipse cx="277.7" cy="180.6" rx="7" ry="4.5" transform="rotate(88.3 277.7 180.6)" fill="#7e3229"/><ellipse cx="286.6" cy="162.1" rx="7" ry="4.5" transform="rotate(0 286.6 162.1)" fill="#7e3229"/><rect x="172.4" y="256.7" width="7" height="7" rx="2" fill="#f5c53a"/><rect x="164.3" y="227.8" width="7" height="7" rx="2" fill="#f5c53a"/><rect x="175.7" y="236.8" width="7" height="7" rx="2" fill="#f5c53a"/><rect x="208" y="217.9" width="7" height="7" rx="2" fill="#f5c53a"/><rect x="202" y="221.1" width="7" height="7" rx="2" fill="#f5c53a"/><rect x="184.1" y="244.1" width="7" height="7" rx="2" fill="#f5c53a"/><rect x="164.2" y="234.1" width="7" height="7" rx="2" fill="#f5c53a"/><rect x="214.8" y="218.9" width="7" height="7" rx="2" fill="#f5c53a"/><rect x="184.8" y="247.8" width="7" height="7" rx="2" fill="#f5c53a"/><rect x="191.2" y="235" width="7" height="7" rx="2" fill="#f5c53a"/><rect x="193.6" y="209" width="7" height="7" rx="2" fill="#f5c53a"/><rect x="208.3" y="219.4" width="7" height="7" rx="2" fill="#f5c53a"/><rect x="218.7" y="253.1" width="7" height="7" rx="2" fill="#f5c53a"/><rect x="184.9" y="241.5" width="7" height="7" rx="2" fill="#f5c53a"/><rect x="209.9" y="242" width="7" height="7" rx="2" fill="#f5c53a"/><rect x="165.5" y="225" width="7" height="7" rx="2" fill="#f5c53a"/><rect x="200" y="239.9" width="7" height="7" rx="2" fill="#f5c53a"/><rect x="204.9" y="207.5" width="7" height="7" rx="2" fill="#f5c53a"/><rect x="195.9" y="250.3" width="7" height="7" rx="2" fill="#f5c53a"/><rect x="172.3" y="250.9" width="7" height="7" rx="2" fill="#f5c53a"/><rect x="206.6" y="267.2" width="7" height="7" rx="2" fill="#f5c53a"/><rect x="205.8" y="258.7" width="7" height="7" rx="2" fill="#f5c53a"/><rect x="188.7" y="228.9" width="7" height="7" rx="2" fill="#f5c53a"/><rect x="206.7" y="233.3" width="7" height="7" rx="2" fill="#f5c53a"/><rect x="168.4" y="222.3" width="7" height="7" rx="2" fill="#f5c53a"/><rect x="187.7" y="243" width="7" height="7" rx="2" fill="#f5c53a"/><rect x="210.6" y="215.2" width="7" height="7" rx="2" fill="#f5c53a"/><rect x="179" y="236.9" width="7" height="7" rx="2" fill="#f5c53a"/><rect x="199.4" y="262.8" width="7" height="7" rx="2" fill="#f5c53a"/><rect x="168.2" y="251" width="7" height="7" rx="2" fill="#f5c53a"/><g transform="rotate(5.5 296.1 217.4)" filter="url(#sm)"><rect x="284.3" y="209" width="23.6" height="16.9" rx="7" fill="url(#chick)"/><path d="M288.3 213.2 l14.8 0 M288.3 220.2 l14.8 0" stroke="#7a4518" stroke-opacity=".35" stroke-width="2.5" stroke-linecap="round"/></g><g transform="rotate(30.8 260.8 255.3)" filter="url(#sm)"><rect x="247.6" y="246.1" width="26.4" height="18.6" rx="7" fill="url(#chick)"/><path d="M252 250.7 l16.5 0 M252 258.4 l16.5 0" stroke="#7a4518" stroke-opacity=".35" stroke-width="2.5" stroke-linecap="round"/></g><g transform="rotate(14.7 263.9 249.1)" filter="url(#sm)"><rect x="251.6" y="240.3" width="24.6" height="17.5" rx="7" fill="url(#chick)"/><path d="M255.7 244.7 l15.4 0 M255.7 252 l15.4 0" stroke="#7a4518" stroke-opacity=".35" stroke-width="2.5" stroke-linecap="round"/></g><g transform="rotate(-19.3 267.3 236.7)" filter="url(#sm)"><rect x="256.9" y="229.1" width="20.9" height="15.2" rx="7" fill="url(#chick)"/><path d="M260.4 232.9 l13 0 M260.4 239.2 l13 0" stroke="#7a4518" stroke-opacity=".35" stroke-width="2.5" stroke-linecap="round"/></g><g transform="rotate(18.4 265.6 222)" filter="url(#sm)"><rect x="253" y="213.1" width="25" height="17.7" rx="7" fill="url(#chick)"/><path d="M257.2 217.6 l15.7 0 M257.2 224.9 l15.7 0" stroke="#7a4518" stroke-opacity=".35" stroke-width="2.5" stroke-linecap="round"/></g><g filter="url(#sm)"><circle cx="224.3" cy="191.2" r="10" fill="#d93b2b"/><circle cx="224.3" cy="191.2" r="6.2" fill="#ef6a4f"/><ellipse cx="227.8" cy="191.2" rx="2.6" ry="1.6" fill="#f7d36a"/><ellipse cx="222.5" cy="194.2" rx="2.6" ry="1.6" fill="#f7d36a"/><ellipse cx="222.6" cy="188.1" rx="2.6" ry="1.6" fill="#f7d36a"/></g><g filter="url(#sm)"><circle cx="249.3" cy="185.4" r="10" fill="#d93b2b"/><circle cx="249.3" cy="185.4" r="6.2" fill="#ef6a4f"/><ellipse cx="252.8" cy="185.4" rx="2.6" ry="1.6" fill="#f7d36a"/><ellipse cx="247.5" cy="188.5" rx="2.6" ry="1.6" fill="#f7d36a"/><ellipse cx="247.6" cy="182.4" rx="2.6" ry="1.6" fill="#f7d36a"/></g><g filter="url(#sm)"><circle cx="243.9" cy="185.2" r="10" fill="#d93b2b"/><circle cx="243.9" cy="185.2" r="6.2" fill="#ef6a4f"/><ellipse cx="247.4" cy="185.2" rx="2.6" ry="1.6" fill="#f7d36a"/><ellipse cx="242.1" cy="188.2" rx="2.6" ry="1.6" fill="#f7d36a"/><ellipse cx="242.2" cy="182.2" rx="2.6" ry="1.6" fill="#f7d36a"/></g><ellipse cx="145.6" cy="165.2" rx="3" ry="1.6" transform="rotate(86.9 145.6 165.2)" fill="#3f7a2e"/><ellipse cx="216.2" cy="152.3" rx="3" ry="1.6" transform="rotate(169.8 216.2 152.3)" fill="#3f7a2e"/><ellipse cx="194.3" cy="241.7" rx="3" ry="1.6" transform="rotate(46.1 194.3 241.7)" fill="#3f7a2e"/><ellipse cx="247.7" cy="245.9" rx="3" ry="1.6" transform="rotate(93.3 247.7 245.9)" fill="#3f7a2e"/><ellipse cx="185.7" cy="251.1" rx="3" ry="1.6" transform="rotate(94.7 185.7 251.1)" fill="#3f7a2e"/><ellipse cx="214.8" cy="156.1" rx="3" ry="1.6" transform="rotate(133.2 214.8 156.1)" fill="#3f7a2e"/><ellipse cx="200.7" cy="223.7" rx="3" ry="1.6" transform="rotate(120 200.7 223.7)" fill="#3f7a2e"/><ellipse cx="208.4" cy="264.7" rx="3" ry="1.6" transform="rotate(135.3 208.4 264.7)" fill="#3f7a2e"/><ellipse cx="143.7" cy="192.1" rx="3" ry="1.6" transform="rotate(58.6 143.7 192.1)" fill="#3f7a2e"/><ellipse cx="170.2" cy="169.3" rx="3" ry="1.6" transform="rotate(35.5 170.2 169.3)" fill="#3f7a2e"/><ellipse cx="287.8" cy="152.6" rx="3" ry="1.6" transform="rotate(25.9 287.8 152.6)" fill="#3f7a2e"/><ellipse cx="273.6" cy="104.9" rx="3" ry="1.6" transform="rotate(8.2 273.6 104.9)" fill="#3f7a2e"/><ellipse cx="317" cy="236" rx="3" ry="1.6" transform="rotate(10.3 317 236)" fill="#3f7a2e"/><ellipse cx="273.1" cy="161.9" rx="3" ry="1.6" transform="rotate(48.7 273.1 161.9)" fill="#3f7a2e"/><ellipse cx="150.5" cy="228.5" rx="3" ry="1.6" transform="rotate(124.3 150.5 228.5)" fill="#3f7a2e"/><ellipse cx="268.3" cy="257.9" rx="3" ry="1.6" transform="rotate(81.7 268.3 257.9)" fill="#3f7a2e"/><ellipse cx="199.3" cy="209.9" rx="3" ry="1.6" transform="rotate(23.8 199.3 209.9)" fill="#3f7a2e"/><ellipse cx="233.6" cy="220" rx="3" ry="1.6" transform="rotate(174.1 233.6 220)" fill="#3f7a2e"/><ellipse cx="200.8" cy="232.9" rx="3" ry="1.6" transform="rotate(42.4 200.8 232.9)" fill="#3f7a2e"/><ellipse cx="189.4" cy="158" rx="3" ry="1.6" transform="rotate(67.4 189.4 158)" fill="#3f7a2e"/><ellipse cx="281.7" cy="265.4" rx="3" ry="1.6" transform="rotate(28.9 281.7 265.4)" fill="#3f7a2e"/><ellipse cx="193.2" cy="182.9" rx="3" ry="1.6" transform="rotate(4.1 193.2 182.9)" fill="#3f7a2e"/><rect width="480" height="360" fill="url(#vig)"/></svg>