<svg xmlns="http://www.w3.org/2000/svg" viewBox="0 0 480 360" width="480" height="360">
<defs>
  <filter id="sh" x="-20%" y="-20%" width="140%" height="150%"><feDropShadow dx="0" dy="10" stdDeviation="12" flood-color="#3a2410" flood-opacity=".28"/></filter>
  <filter id="sm" x="-30%" y="-30%" width="160%" height="160%"><feDropShadow dx="0" dy="2" stdDeviation="2" flood-color="#3a2410" flood-opacity=".25"/></filter>
  <radialGradient id="plate" cx="50%" cy="45%" r="55%"><stop offset="0" stop-color="#ffffff"/><stop offset=".8" stop-color="#f6f2ec"/><stop offset="1" stop-color="#e9e2d8"/></radialGradient>
  <radialGradient id="vig" cx="50%" cy="45%" r="75%"><stop offset=".55" stop-color="#000" stop-opacity="0"/><stop offset="1" stop-color="#2a1608" stop-opacity=".28"/></radialGradient>
  <radialGradient id="chick" cx="40%" cy="35%" r="70%"><stop offset="0" stop-color="#e8b878"/><stop offset=".7" stop-color="#c98a4a"/><stop offset="1" stop-color="#a5662f"/></radialGradient>
  <radialGradient id="beef" cx="40%" cy="35%" r="70%"><stop offset="0" stop-color="#9a5a3c"/><stop offset="1" stop-color="#5e2f1d"/></radialGradient>
  <radialGradient id="pot" cx="35%" cy="30%" r="75%"><stop offset="0" stop-color="#f6d27a"/><stop offset=".75" stop-color="#e2a748"/><stop offset="1" stop-color="#c4822c"/></radialGradient>
  <radialGradient id="yolk" cx="40%" cy="35%" r="65%"><stop offset="0" stop-color="#ffd25a"/><stop offset="1" stop-color="#f29a1c"/></radialGradient>
  <radialGradient id="glass" cx="50%" cy="50%" r="50%"><stop offset=".86" stop-color="#ffffff" stop-opacity="0"/><stop offset=".93" stop-color="#ffffff" stop-opacity=".75"/><stop offset="1" stop-color="#cfd8dc" stop-opacity=".9"/></radialGradient>
</defs><rect width="480" height="360" fill="#e6c49a"/>
  <g opacity=".18"><rect x="0" y="0" width="480" height="10" fill="#d6af80"/><rect x="0" y="32" width="480" height="10" fill="#d6af80"/><rect x="0" y="64" width="480" height="10" fill="#d6af80"/><rect x="0" y="96" width="480" height="10" fill="#d6af80"/><rect x="0" y="128" width="480" height="10" fill="#d6af80"/><rect x="0" y="160" width="480" height="10" fill="#d6af80"/><rect x="0" y="192" width="480" height="10" fill="#d6af80"/><rect x="0" y="224" width="480" height="10" fill="#d6af80"/><rect x="0" y="256" width="480" height="10" fill="#d6af80"/><rect x="0" y="288" width="480" height="10" fill="#d6af80"/><rect x="0" y="320" width="480" height="10" fill="#d6af80"/><rect x="0" y="352" width="480" height="10" fill="#d6af80"/></g><g transform="rotate(-14 70 300)" filter="url(#sm)"><rect x="-10" y="250" width="150" height="120" rx="6" fill="#2f4a5c"/><rect x="-10" y="262" width="150" height="4" fill="#fff" opacity=".5"/><rect x="-10" y="350" width="150" height="4" fill="#fff" opacity=".5"/></g><circle cx="240" cy="186" r="142" fill="url(#plate)" filter="url(#sh)"/><circle cx="240" cy="186" r="105.08" fill="none" stroke="#e8e1d6" stroke-width="2"/><g transform="translate(230 186) rotate(-10) scale(1.2)" filter="url(#sh)"><path d="M-100 70 L100 -70 L100 70 Z" fill="#b47233"/><path d="M-88 62 L92 -60 L92 62 Z" fill="#f1d29a"/><path d="M-96 74 L104 -66" stroke="#7cb85a" stroke-width="10"/><path d="M-90 80 L108 -58" stroke="#e9a3a0" stroke-width="8"/><path d="M-84 86 L110 -50" stroke="#f5d06a" stroke-width="6"/></g><g filter="url(#sm)"><circle cx="330" cy="256" r="12" fill="#d93b2b"/><circle cx="330" cy="256" r="7.4399999999999995" fill="#ef6a4f"/><ellipse cx="334.2" cy="256" rx="2.6" ry="1.6" fill="#f7d36a"/><ellipse cx="327.9" cy="259.6" rx="2.6" ry="1.6" fill="#f7d36a"/><ellipse cx="327.9" cy="252.3" rx="2.6" ry="1.6" fill="#f7d36a"/></g><g filter="url(#sm)"><circle cx="300" cy="276" r="12" fill="#d93b2b"/><circle cx="300" cy="276" r="7.4399999999999995" fill="#ef6a4f"/><ellipse cx="304.2" cy="276" rx="2.6" ry="1.6" fill="#f7d36a"/><ellipse cx="297.9" cy="279.6" rx="2.6" ry="1.6" fill="#f7d36a"/><ellipse cx="297.9" cy="272.3" rx="2.6" ry="1.6" fill="#f7d36a"/></g><g filter="url(#sm)"><circle cx="150" cy="116" r="11" fill="#4d8a3c"/><circle cx="150" cy="116" r="8" fill="#d9ecbf"/><circle cx="150" cy="116" r="4.4" fill="#bcd99a"/></g><g filter="url(#sm)"><circle cx="176" cy="100" r="11" fill="#4d8a3c"/><circle cx="176" cy="100" r="8" fill="#d9ecbf"/><circle cx="176" cy="100" r="4.4" fill="#bcd99a"/></g><rect width="480" height="360" fill="url(#vig)"/></svg>