<svg xmlns="http://www.w3.org/2000/svg" viewBox="0 0 480 360" width="480" height="360">
<defs>
  <filter id="sh" x="-20%" y="-20%" width="140%" height="150%"><feDropShadow dx="0" dy="10" stdDeviation="12" flood-color="#3a2410" flood-opacity=".28"/></filter>
  <filter id="sm" x="-30%" y="-30%" width="160%" height="160%"><feDropShadow dx="0" dy="2" stdDeviation="2" flood-color="#3a2410" flood-opacity=".25"/></filter>
  <radialGradient id="plate" cx="50%" cy="45%" r="55%"><stop offset="0" stop-color="#ffffff"/><stop offset=".8" stop-color="#f6f2ec"/><stop offset="1" stop-color="#e9e2d8"/></radialGradient>
  <radialGradient id="vig" cx="50%" cy="45%" r="75%"><stop offset=".55" stop-color="#000" stop-opacity="0"/><stop offset="1" stop-color="#2a1608" stop-opacity=".28"/></radialGradient>
  <radialGradient id="chick" cx="40%" cy="35%" r="70%"><stop offset="0" stop-color="#e8b878"/><stop offset=".7" stop-color="#c98a4a"/><stop offset="1" stop-color="#a5662f"/></radialGradient>
  <radialGradient id="beef" cx="40%" cy="35%" r="70%"><stop offset="0" stop-color="#9a5a3c"/><stop offset="1" stop-color="#5e2f1d"/></radialGradient>
  <radialGradient id="pot" cx="35%" cy="30%" r="75%"><stop offset="0" stop-color="#f6d27a"/><stop offset=".75" stop-color="#e2a748"/><stop offset="1" stop-color="#c4822c"/></radialGradient>
  <radialGradient id="yolk" cx="40%" cy="35%" r="65%"><stop offset="0" stop-color="#ffd25a"/><stop offset="1" stop-color="#f29a1c"/></radialGradient>
  <radialGradient id="glass" cx="50%" cy="50%" r="50%"><stop offset=".86" stop-color="#ffffff" stop-opacity="0"/><stop offset=".93" stop-color="#ffffff" stop-opacity=".75"/><stop offset="1" stop-color="#cfd8dc" stop-opacity=".9"/></radialGradient>
</defs><rect width="480" height="360" fill="#d9c3e0"/>
  <g opacity=".18"><rect x="0" y="0" width="480" height="10" fill="#c8afd1"/><rect x="0" y="32" width="480" height="10" fill="#c8afd1"/><rect x="0" y="64" width="480" height="10" fill="#c8afd1"/><rect x="0" y="96" width="480" height="10" fill="#c8afd1"/><rect x="0" y="128" width="480" height="10" fill="#c8afd1"/><rect x="0" y="160" width="480" height="10" fill="#c8afd1"/><rect x="0" y="192" width="480" height="10" fill="#c8afd1"/><rect x="0" y="224" width="480" height="10" fill="#c8afd1"/><rect x="0" y="256" width="480" height="10" fill="#c8afd1"/><rect x="0" y="288" width="480" height="10" fill="#c8afd1"/><rect x="0" y="320" width="480" height="10" fill="#c8afd1"/><rect x="0" y="352" width="480" height="10" fill="#c8afd1"/></g><g transform="rotate(-14 70 300)" filter="url(#sm)"><rect x="-10" y="250" width="150" height="120" rx="6" fill="#e9d7b9"/><rect x="-10" y="262" width="150" height="4" fill="#fff" opacity=".5"/><rect x="-10" y="350" width="150" height="4" fill="#fff" opacity=".5"/></g><g transform="rotate(10 420 190)" filter="url(#sm)"><rect x="414" y="140" width="10" height="160" rx="5" fill="#d9d4cc"/><ellipse cx="419" cy="100" rx="22" ry="34" fill="#e6e1d9"/><ellipse cx="419" cy="100" rx="15" ry="26" fill="#d6d0c6"/></g><circle cx="240" cy="186" r="138" fill="#ffffff" filter="url(#sh)"/><circle cx="240" cy="186" r="118.67999999999999" fill="#fbfaf6"/><circle cx="240" cy="186" r="118.67999999999999" fill="none" stroke="#000" stroke-opacity=".08" stroke-width="6"/><circle cx="240" cy="186" r="112" fill="#f7f4ec"/><circle cx="241.6" cy="184.6" r="7.4" fill="#fffefa" stroke="#e7e1d3" stroke-width="1.2"/><circle cx="219.9" cy="154.8" r="9" fill="#fffefa" stroke="#e7e1d3" stroke-width="1.2"/><circle cx="158.9" cy="173.6" r="6.6" fill="#fffefa" stroke="#e7e1d3" stroke-width="1.2"/><circle cx="310.2" cy="166.8" r="8.4" fill="#fffefa" stroke="#e7e1d3" stroke-width="1.2"/><circle cx="148.4" cy="209.8" r="8" fill="#fffefa" stroke="#e7e1d3" stroke-width="1.2"/><circle cx="265.7" cy="257.2" r="10" fill="#fffefa" stroke="#e7e1d3" stroke-width="1.2"/><circle cx="231.3" cy="264.8" r="6.7" fill="#fffefa" stroke="#e7e1d3" stroke-width="1.2"/><circle cx="178.2" cy="137.5" r="9.3" fill="#fffefa" stroke="#e7e1d3" stroke-width="1.2"/><circle cx="270.6" cy="252.9" r="6.8" fill="#fffefa" stroke="#e7e1d3" stroke-width="1.2"/><circle cx="168.2" cy="246.9" r="6.8" fill="#fffefa" stroke="#e7e1d3" stroke-width="1.2"/><circle cx="177.5" cy="132.8" r="8.6" fill="#fffefa" stroke="#e7e1d3" stroke-width="1.2"/><circle cx="190.6" cy="222.2" r="6.8" fill="#fffefa" stroke="#e7e1d3" stroke-width="1.2"/><circle cx="243.7" cy="172.8" r="9.2" fill="#fffefa" stroke="#e7e1d3" stroke-width="1.2"/><circle cx="228.7" cy="122" r="7.3" fill="#fffefa" stroke="#e7e1d3" stroke-width="1.2"/><circle cx="327.8" cy="166" r="6.7" fill="#fffefa" stroke="#e7e1d3" stroke-width="1.2"/><circle cx="158.4" cy="198" r="7.4" fill="#fffefa" stroke="#e7e1d3" stroke-width="1.2"/><circle cx="232.9" cy="259.6" r="8" fill="#fffefa" stroke="#e7e1d3" stroke-width="1.2"/><circle cx="200.2" cy="123.2" r="8.6" fill="#fffefa" stroke="#e7e1d3" stroke-width="1.2"/><circle cx="222.4" cy="156.1" r="6.7" fill="#fffefa" stroke="#e7e1d3" stroke-width="1.2"/><circle cx="183.4" cy="164" r="7.3" fill="#fffefa" stroke="#e7e1d3" stroke-width="1.2"/><circle cx="199.8" cy="110.3" r="8.6" fill="#fffefa" stroke="#e7e1d3" stroke-width="1.2"/><circle cx="252.1" cy="101.2" r="10" fill="#fffefa" stroke="#e7e1d3" stroke-width="1.2"/><circle cx="339.6" cy="186.9" r="9.3" fill="#fffefa" stroke="#e7e1d3" stroke-width="1.2"/><circle cx="285.4" cy="153.1" r="6.5" fill="#fffefa" stroke="#e7e1d3" stroke-width="1.2"/><circle cx="244" cy="103.2" r="9.8" fill="#fffefa" stroke="#e7e1d3" stroke-width="1.2"/><circle cx="256" cy="121.6" r="9.8" fill="#fffefa" stroke="#e7e1d3" stroke-width="1.2"/><circle cx="200.5" cy="139.9" r="8.2" fill="#fffefa" stroke="#e7e1d3" stroke-width="1.2"/><circle cx="239.9" cy="183.7" r="6.7" fill="#fffefa" stroke="#e7e1d3" stroke-width="1.2"/><circle cx="256.8" cy="266.1" r="9.7" fill="#fffefa" stroke="#e7e1d3" stroke-width="1.2"/><circle cx="188.1" cy="169.6" r="6.2" fill="#fffefa" stroke="#e7e1d3" stroke-width="1.2"/><circle cx="266.1" cy="218.5" r="8.1" fill="#fffefa" stroke="#e7e1d3" stroke-width="1.2"/><circle cx="225.8" cy="197.4" r="9.1" fill="#fffefa" stroke="#e7e1d3" stroke-width="1.2"/><circle cx="320.3" cy="191.2" r="6.5" fill="#fffefa" stroke="#e7e1d3" stroke-width="1.2"/><circle cx="283.1" cy="214.5" r="6.1" fill="#fffefa" stroke="#e7e1d3" stroke-width="1.2"/><circle cx="205.8" cy="178.1" r="9.2" fill="#fffefa" stroke="#e7e1d3" stroke-width="1.2"/><circle cx="239" cy="256.1" r="6.5" fill="#fffefa" stroke="#e7e1d3" stroke-width="1.2"/><circle cx="243.1" cy="277.1" r="7" fill="#fffefa" stroke="#e7e1d3" stroke-width="1.2"/><circle cx="182.9" cy="242.9" r="6.9" fill="#fffefa" stroke="#e7e1d3" stroke-width="1.2"/><circle cx="286.5" cy="191.9" r="8.4" fill="#fffefa" stroke="#e7e1d3" stroke-width="1.2"/><circle cx="175.4" cy="202.8" r="9.3" fill="#fffefa" stroke="#e7e1d3" stroke-width="1.2"/><circle cx="186.5" cy="213.8" r="7.1" fill="#fffefa" stroke="#e7e1d3" stroke-width="1.2"/><circle cx="189.7" cy="275.3" r="7.7" fill="#fffefa" stroke="#e7e1d3" stroke-width="1.2"/><circle cx="210.5" cy="247.9" r="7.8" fill="#fffefa" stroke="#e7e1d3" stroke-width="1.2"/><circle cx="335.1" cy="155.4" r="6.5" fill="#fffefa" stroke="#e7e1d3" stroke-width="1.2"/><circle cx="276.3" cy="218.1" r="8.7" fill="#fffefa" stroke="#e7e1d3" stroke-width="1.2"/><circle cx="225.4" cy="243.6" r="9.9" fill="#fffefa" stroke="#e7e1d3" stroke-width="1.2"/><circle cx="204.7" cy="267.4" r="7.2" fill="#fffefa" stroke="#e7e1d3" stroke-width="1.2"/><circle cx="294.4" cy="216.3" r="7.8" fill="#fffefa" stroke="#e7e1d3" stroke-width="1.2"/><circle cx="206.7" cy="248.7" r="6.9" fill="#fffefa" stroke="#e7e1d3" stroke-width="1.2"/><circle cx="336.4" cy="156.8" r="7.4" fill="#fffefa" stroke="#e7e1d3" stroke-width="1.2"/><g transform="rotate(295.2 241.5 127.9)" filter="url(#sm)"><path d="M241.5 113.9 c14 0 16 12 0 26 c-16 -14 -14 -26 0 -26z" fill="#e0384a"/><ellipse cx="237.5" cy="123.9" rx="1.3" ry="1.8" fill="#f9d77a"/><ellipse cx="245.5" cy="123.9" rx="1.3" ry="1.8" fill="#f9d77a"/><ellipse cx="241.5" cy="130.9" rx="1.3" ry="1.8" fill="#f9d77a"/><ellipse cx="236.5" cy="131.9" rx="1.3" ry="1.8" fill="#f9d77a"/><ellipse cx="246.5" cy="131.9" rx="1.3" ry="1.8" fill="#f9d77a"/><path d="M234.5 113.9 l7 5 l7 -5" stroke="#4f8a3a" stroke-width="3" fill="none" stroke-linecap="round"/></g><g transform="rotate(306.5 224 188.1)" filter="url(#sm)"><path d="M224 174.1 c14 0 16 12 0 26 c-16 -14 -14 -26 0 -26z" fill="#e0384a"/><ellipse cx="220" cy="184.1" rx="1.3" ry="1.8" fill="#f9d77a"/><ellipse cx="228" cy="184.1" rx="1.3" ry="1.8" fill="#f9d77a"/><ellipse cx="224" cy="191.1" rx="1.3" ry="1.8" fill="#f9d77a"/><ellipse cx="219" cy="192.1" rx="1.3" ry="1.8" fill="#f9d77a"/><ellipse cx="229" cy="192.1" rx="1.3" ry="1.8" fill="#f9d77a"/><path d="M217 174.1 l7 5 l7 -5" stroke="#4f8a3a" stroke-width="3" fill="none" stroke-linecap="round"/></g><g transform="rotate(73.9 233.2 196.4)" filter="url(#sm)"><path d="M233.2 182.4 c14 0 16 12 0 26 c-16 -14 -14 -26 0 -26z" fill="#e0384a"/><ellipse cx="229.2" cy="192.4" rx="1.3" ry="1.8" fill="#f9d77a"/><ellipse cx="237.2" cy="192.4" rx="1.3" ry="1.8" fill="#f9d77a"/><ellipse cx="233.2" cy="199.4" rx="1.3" ry="1.8" fill="#f9d77a"/><ellipse cx="228.2" cy="200.4" rx="1.3" ry="1.8" fill="#f9d77a"/><ellipse cx="238.2" cy="200.4" rx="1.3" ry="1.8" fill="#f9d77a"/><path d="M226.2 182.4 l7 5 l7 -5" stroke="#4f8a3a" stroke-width="3" fill="none" stroke-linecap="round"/></g><g transform="rotate(272.7 173.1 178.8)" filter="url(#sm)"><path d="M173.1 164.8 c14 0 16 12 0 26 c-16 -14 -14 -26 0 -26z" fill="#e0384a"/><ellipse cx="169.1" cy="174.8" rx="1.3" ry="1.8" fill="#f9d77a"/><ellipse cx="177.1" cy="174.8" rx="1.3" ry="1.8" fill="#f9d77a"/><ellipse cx="173.1" cy="181.8" rx="1.3" ry="1.8" fill="#f9d77a"/><ellipse cx="168.1" cy="182.8" rx="1.3" ry="1.8" fill="#f9d77a"/><ellipse cx="178.1" cy="182.8" rx="1.3" ry="1.8" fill="#f9d77a"/><path d="M166.1 164.8 l7 5 l7 -5" stroke="#4f8a3a" stroke-width="3" fill="none" stroke-linecap="round"/></g><g filter="url(#sm)"><circle cx="312.6" cy="205.2" r="9.5" fill="#3d3a7a"/><circle cx="310.6" cy="203.2" r="2" fill="#fff" opacity=".45"/></g><g filter="url(#sm)"><circle cx="247.8" cy="205.6" r="9.8" fill="#4b3f8f"/><circle cx="245.8" cy="203.6" r="2" fill="#fff" opacity=".45"/></g><g filter="url(#sm)"><circle cx="270.7" cy="210.7" r="8.9" fill="#2f2c66"/><circle cx="268.7" cy="208.7" r="2" fill="#fff" opacity=".45"/></g><g filter="url(#sm)"><circle cx="302" cy="238.4" r="10.4" fill="#3d3a7a"/><circle cx="300" cy="236.4" r="2" fill="#fff" opacity=".45"/></g><g filter="url(#sm)"><circle cx="306.7" cy="197.9" r="9.4" fill="#4b3f8f"/><circle cx="304.7" cy="195.9" r="2" fill="#fff" opacity=".45"/></g><g filter="url(#sm)"><circle cx="303.3" cy="177.8" r="10" fill="#2f2c66"/><circle cx="301.3" cy="175.8" r="2" fill="#fff" opacity=".45"/></g><g filter="url(#sm)"><circle cx="247.2" cy="186.9" r="9.9" fill="#3d3a7a"/><circle cx="245.2" cy="184.9" r="2" fill="#fff" opacity=".45"/></g><g filter="url(#sm)"><circle cx="257.1" cy="243.9" r="10.3" fill="#4b3f8f"/><circle cx="255.1" cy="241.9" r="2" fill="#fff" opacity=".45"/></g><g filter="url(#sm)"><circle cx="261.3" cy="188.3" r="10.1" fill="#2f2c66"/><circle cx="259.3" cy="186.3" r="2" fill="#fff" opacity=".45"/></g><g filter="url(#sm)"><circle cx="261.5" cy="233.4" r="8.9" fill="#3d3a7a"/><circle cx="259.5" cy="231.4" r="2" fill="#fff" opacity=".45"/></g><g filter="url(#sm)"><circle cx="291.5" cy="169.9" r="9" fill="#4b3f8f"/><circle cx="289.5" cy="167.9" r="2" fill="#fff" opacity=".45"/></g><g filter="url(#sm)"><circle cx="281.3" cy="174.9" r="8.3" fill="#2f2c66"/><circle cx="279.3" cy="172.9" r="2" fill="#fff" opacity=".45"/></g><path d="M170 246 q30 -20 60 0 t60 0" fill="none" stroke="#e6a23a" stroke-width="6" stroke-linecap="round" opacity=".85"/><rect width="480" height="360" fill="url(#vig)"/></svg>